<svg width="20" height="20" viewBox="0 0 20 20" fill="none" xmlns="http://www.w3.org/2000/svg">
<g id="download (1) 1" clip-path="url(#clip0_1_2387)">
<g id="Group">
<path id="Vector" d="M9.99219 20C15.515 20 19.9922 15.5228 19.9922 10C19.9922 4.47715 15.515 0 9.99219 0C4.46934 0 -0.0078125 4.47715 -0.0078125 10C-0.0078125 15.5228 4.46934 20 9.99219 20Z" fill="#00A7A7"/>
<path id="Vector_2" fill-rule="evenodd" clip-rule="evenodd" d="M14.2539 6.15852L8.29138 11.921L6.71638 10.221C6.56741 10.0911 6.37883 10.0154 6.18135 10.0063C5.98388 9.99723 5.78914 10.0553 5.62888 10.171C5.47382 10.28 5.36488 10.4427 5.32329 10.6276C5.28169 10.8124 5.31042 11.0062 5.40388 11.171L7.27888 14.2335C7.46638 14.5085 7.79138 14.6835 8.14138 14.6835C8.49138 14.6835 8.80388 14.5085 8.99138 14.2335C9.29138 13.846 15.0164 7.00852 15.0164 7.00852C15.7664 6.25852 14.8539 5.57102 14.2664 6.15852H14.2539Z" fill="white"/>
</g>
</g>
<defs>
<clipPath id="clip0_1_2387">
<rect width="20" height="20" fill="white" transform="translate(-0.0078125)"/>
</clipPath>
</defs>
</svg>
