<svg width="536" height="536" viewBox="0 0 536 536" fill="none" xmlns="http://www.w3.org/2000/svg">
<rect width="536" height="536" fill="white"/>
<circle cx="268" cy="268" r="230" fill="url(#paint0_radial_2_4227)"/>
<g filter="url(#filter0_d_2_4227)">
<rect x="38" y="111" width="460" height="313" rx="12" fill="white" shape-rendering="crispEdges"/>
<rect x="37.5" y="110.5" width="461" height="314" rx="12.5" stroke="url(#paint1_linear_2_4227)" shape-rendering="crispEdges"/>
</g>
<path opacity="0.6" d="M315.595 214.823C315.93 214.823 316.213 214.785 316.442 214.708C316.675 214.628 316.864 214.519 317.008 214.384C317.157 214.248 317.263 214.089 317.326 213.906C317.394 213.72 317.428 213.52 317.428 213.308C317.428 212.875 317.28 212.536 316.983 212.29C316.69 212.04 316.225 211.915 315.589 211.915H313.75V214.823H315.595ZM313.75 208.001V210.865H315.239C315.875 210.865 316.35 210.742 316.664 210.495C316.978 210.249 317.135 209.895 317.135 209.433C317.135 208.928 316.987 208.563 316.69 208.338C316.397 208.113 315.937 208.001 315.309 208.001H313.75ZM315.309 206.836C315.894 206.836 316.395 206.894 316.811 207.008C317.227 207.118 317.568 207.278 317.835 207.485C318.103 207.693 318.298 207.948 318.421 208.249C318.548 208.546 318.612 208.881 318.612 209.255C318.612 209.471 318.578 209.681 318.51 209.885C318.446 210.084 318.344 210.273 318.204 210.451C318.069 210.625 317.897 210.782 317.689 210.922C317.481 211.062 317.235 211.178 316.951 211.272C318.249 211.548 318.898 212.237 318.898 213.34C318.898 213.73 318.824 214.089 318.675 214.415C318.531 214.738 318.319 215.018 318.039 215.255C317.763 215.489 317.422 215.671 317.014 215.803C316.607 215.934 316.143 216 315.621 216H312.261V206.836H315.309ZM323.69 213.162C323.202 213.179 322.791 213.219 322.455 213.283C322.12 213.342 321.849 213.421 321.641 213.518C321.433 213.612 321.282 213.724 321.189 213.855C321.1 213.987 321.055 214.131 321.055 214.288C321.055 214.441 321.079 214.572 321.125 214.683C321.176 214.789 321.244 214.878 321.329 214.95C321.418 215.018 321.52 215.069 321.635 215.103C321.753 215.132 321.883 215.147 322.023 215.147C322.379 215.147 322.685 215.082 322.939 214.95C323.198 214.814 323.448 214.619 323.69 214.365V213.162ZM320.063 210.413C320.797 209.73 321.671 209.388 322.685 209.388C323.058 209.388 323.389 209.45 323.677 209.573C323.97 209.692 324.214 209.861 324.409 210.082C324.608 210.302 324.759 210.565 324.861 210.871C324.967 211.172 325.02 211.507 325.02 211.876V216H324.409C324.278 216 324.178 215.981 324.11 215.943C324.042 215.9 323.985 215.818 323.938 215.695L323.805 215.166C323.639 215.315 323.476 215.448 323.315 215.567C323.153 215.682 322.986 215.779 322.812 215.86C322.642 215.941 322.458 216 322.258 216.038C322.063 216.081 321.847 216.102 321.609 216.102C321.346 216.102 321.1 216.066 320.871 215.994C320.646 215.922 320.451 215.813 320.285 215.669C320.12 215.521 319.988 215.338 319.891 215.122C319.798 214.905 319.751 214.651 319.751 214.358C319.751 214.108 319.817 213.864 319.948 213.626C320.084 213.389 320.305 213.177 320.61 212.99C320.92 212.799 321.325 212.642 321.825 212.519C322.33 212.396 322.952 212.326 323.69 212.309V211.876C323.69 211.41 323.59 211.062 323.391 210.833C323.191 210.604 322.899 210.489 322.513 210.489C322.25 210.489 322.029 210.523 321.851 210.591C321.673 210.655 321.518 210.725 321.386 210.801C321.255 210.877 321.138 210.949 321.036 211.017C320.935 211.081 320.826 211.113 320.712 211.113C320.618 211.113 320.538 211.089 320.47 211.043C320.406 210.992 320.353 210.93 320.311 210.858L320.063 210.413ZM326.623 216V209.509H327.45C327.637 209.509 327.755 209.596 327.806 209.77L327.895 210.336C328.014 210.201 328.137 210.078 328.265 209.967C328.392 209.853 328.528 209.755 328.672 209.675C328.82 209.59 328.977 209.524 329.143 209.477C329.312 209.431 329.495 209.407 329.69 209.407C329.898 209.407 330.089 209.437 330.263 209.496C330.437 209.556 330.589 209.641 330.721 209.751C330.857 209.861 330.973 209.995 331.071 210.152C331.168 210.309 331.249 210.485 331.313 210.68C331.41 210.455 331.533 210.262 331.682 210.101C331.83 209.94 331.996 209.808 332.178 209.706C332.361 209.605 332.554 209.53 332.757 209.484C332.965 209.433 333.175 209.407 333.387 209.407C333.735 209.407 334.045 209.462 334.316 209.573C334.592 209.683 334.823 209.844 335.01 210.056C335.201 210.264 335.345 210.521 335.443 210.826C335.54 211.132 335.589 211.48 335.589 211.87V216H334.221V211.87C334.221 211.412 334.121 211.068 333.922 210.839C333.727 210.606 333.436 210.489 333.05 210.489C332.876 210.489 332.713 210.519 332.56 210.578C332.407 210.638 332.274 210.725 332.159 210.839C332.045 210.954 331.953 211.098 331.885 211.272C331.822 211.442 331.79 211.641 331.79 211.87V216H330.422V211.87C330.422 211.395 330.326 211.047 330.135 210.826C329.945 210.602 329.665 210.489 329.295 210.489C329.041 210.489 328.805 210.555 328.589 210.686C328.373 210.814 328.173 210.99 327.991 211.215V216H326.623ZM341.33 211.106C341.139 210.86 340.929 210.688 340.7 210.591C340.471 210.493 340.223 210.445 339.956 210.445C339.421 210.445 339.003 210.642 338.702 211.036C338.401 211.427 338.25 212.006 338.25 212.774C338.25 213.172 338.284 213.514 338.352 213.798C338.42 214.078 338.517 214.307 338.645 214.485C338.772 214.664 338.927 214.793 339.109 214.874C339.292 214.954 339.497 214.995 339.726 214.995C340.074 214.995 340.373 214.92 340.624 214.772C340.878 214.619 341.114 214.405 341.33 214.129V211.106ZM342.698 206.582V216H341.871C341.689 216 341.572 215.913 341.521 215.739L341.4 215.033C341.129 215.351 340.819 215.608 340.471 215.803C340.127 215.998 339.726 216.095 339.268 216.095C338.903 216.095 338.572 216.023 338.276 215.879C337.979 215.731 337.724 215.516 337.512 215.236C337.3 214.956 337.134 214.611 337.016 214.199C336.901 213.783 336.844 213.308 336.844 212.774C336.844 212.29 336.907 211.842 337.035 211.431C337.166 211.019 337.353 210.663 337.595 210.362C337.836 210.056 338.129 209.819 338.473 209.649C338.821 209.475 339.209 209.388 339.637 209.388C340.019 209.388 340.344 209.45 340.611 209.573C340.878 209.692 341.118 209.859 341.33 210.075V206.582H342.698ZM347.839 213.162C347.352 213.179 346.94 213.219 346.605 213.283C346.27 213.342 345.998 213.421 345.79 213.518C345.582 213.612 345.432 213.724 345.339 213.855C345.249 213.987 345.205 214.131 345.205 214.288C345.205 214.441 345.228 214.572 345.275 214.683C345.326 214.789 345.394 214.878 345.479 214.95C345.568 215.018 345.669 215.069 345.784 215.103C345.903 215.132 346.032 215.147 346.172 215.147C346.529 215.147 346.834 215.082 347.089 214.95C347.347 214.814 347.598 214.619 347.839 214.365V213.162ZM344.212 210.413C344.946 209.73 345.82 209.388 346.834 209.388C347.207 209.388 347.538 209.45 347.827 209.573C348.119 209.692 348.363 209.861 348.559 210.082C348.758 210.302 348.909 210.565 349.01 210.871C349.116 211.172 349.169 211.507 349.169 211.876V216H348.559C348.427 216 348.327 215.981 348.259 215.943C348.192 215.9 348.134 215.818 348.088 215.695L347.954 215.166C347.789 215.315 347.625 215.448 347.464 215.567C347.303 215.682 347.135 215.779 346.961 215.86C346.792 215.941 346.607 216 346.408 216.038C346.212 216.081 345.996 216.102 345.759 216.102C345.496 216.102 345.249 216.066 345.02 215.994C344.796 215.922 344.6 215.813 344.435 215.669C344.269 215.521 344.138 215.338 344.04 215.122C343.947 214.905 343.9 214.651 343.9 214.358C343.9 214.108 343.966 213.864 344.098 213.626C344.233 213.389 344.454 213.177 344.759 212.99C345.069 212.799 345.474 212.642 345.975 212.519C346.48 212.396 347.101 212.326 347.839 212.309V211.876C347.839 211.41 347.74 211.062 347.54 210.833C347.341 210.604 347.048 210.489 346.662 210.489C346.399 210.489 346.179 210.523 346 210.591C345.822 210.655 345.667 210.725 345.536 210.801C345.404 210.877 345.288 210.949 345.186 211.017C345.084 211.081 344.976 211.113 344.861 211.113C344.768 211.113 344.687 211.089 344.619 211.043C344.556 210.992 344.503 210.93 344.46 210.858L344.212 210.413ZM354.915 211.106C354.724 210.86 354.514 210.688 354.285 210.591C354.056 210.493 353.808 210.445 353.54 210.445C353.006 210.445 352.588 210.642 352.287 211.036C351.986 211.427 351.835 212.006 351.835 212.774C351.835 213.172 351.869 213.514 351.937 213.798C352.005 214.078 352.102 214.307 352.229 214.485C352.357 214.664 352.512 214.793 352.694 214.874C352.876 214.954 353.082 214.995 353.311 214.995C353.659 214.995 353.958 214.92 354.209 214.772C354.463 214.619 354.699 214.405 354.915 214.129V211.106ZM356.283 206.582V216H355.456C355.273 216 355.157 215.913 355.106 215.739L354.985 215.033C354.713 215.351 354.404 215.608 354.056 215.803C353.712 215.998 353.311 216.095 352.853 216.095C352.488 216.095 352.157 216.023 351.86 215.879C351.563 215.731 351.309 215.516 351.097 215.236C350.885 214.956 350.719 214.611 350.6 214.199C350.486 213.783 350.429 213.308 350.429 212.774C350.429 212.29 350.492 211.842 350.619 211.431C350.751 211.019 350.938 210.663 351.179 210.362C351.421 210.056 351.714 209.819 352.058 209.649C352.406 209.475 352.794 209.388 353.222 209.388C353.604 209.388 353.929 209.45 354.196 209.573C354.463 209.692 354.703 209.859 354.915 210.075V206.582H356.283ZM369.424 211.418C369.424 212.097 369.313 212.718 369.093 213.283C368.872 213.843 368.56 214.324 368.157 214.727C367.759 215.13 367.277 215.444 366.713 215.669C366.153 215.89 365.529 216 364.842 216H361.38V206.836H364.842C365.529 206.836 366.153 206.949 366.713 207.174C367.277 207.394 367.759 207.706 368.157 208.109C368.56 208.512 368.872 208.996 369.093 209.56C369.313 210.12 369.424 210.739 369.424 211.418ZM367.903 211.418C367.903 210.892 367.831 210.419 367.686 209.999C367.546 209.579 367.343 209.225 367.076 208.936C366.813 208.648 366.492 208.427 366.115 208.275C365.737 208.118 365.313 208.039 364.842 208.039H362.876V214.797H364.842C365.313 214.797 365.737 214.721 366.115 214.568C366.492 214.415 366.813 214.195 367.076 213.906C367.343 213.614 367.546 213.259 367.686 212.844C367.831 212.424 367.903 211.948 367.903 211.418ZM374.397 214.823C374.732 214.823 375.014 214.785 375.243 214.708C375.476 214.628 375.665 214.519 375.81 214.384C375.958 214.248 376.064 214.089 376.128 213.906C376.196 213.72 376.23 213.52 376.23 213.308C376.23 212.875 376.081 212.536 375.784 212.29C375.491 212.04 375.027 211.915 374.39 211.915H372.551V214.823H374.397ZM372.551 208.001V210.865H374.04C374.677 210.865 375.152 210.742 375.466 210.495C375.78 210.249 375.937 209.895 375.937 209.433C375.937 208.928 375.788 208.563 375.491 208.338C375.199 208.113 374.738 208.001 374.11 208.001H372.551ZM374.11 206.836C374.696 206.836 375.196 206.894 375.612 207.008C376.028 207.118 376.37 207.278 376.637 207.485C376.904 207.693 377.099 207.948 377.222 208.249C377.35 208.546 377.413 208.881 377.413 209.255C377.413 209.471 377.379 209.681 377.311 209.885C377.248 210.084 377.146 210.273 377.006 210.451C376.87 210.625 376.698 210.782 376.49 210.922C376.283 211.062 376.036 211.178 375.752 211.272C377.05 211.548 377.7 212.237 377.7 213.34C377.7 213.73 377.625 214.089 377.477 214.415C377.333 214.738 377.12 215.018 376.84 215.255C376.565 215.489 376.223 215.671 375.816 215.803C375.409 215.934 374.944 216 374.422 216H371.062V206.836H374.11ZM382.491 213.162C382.004 213.179 381.592 213.219 381.257 213.283C380.922 213.342 380.65 213.421 380.442 213.518C380.234 213.612 380.084 213.724 379.991 213.855C379.901 213.987 379.857 214.131 379.857 214.288C379.857 214.441 379.88 214.572 379.927 214.683C379.978 214.789 380.046 214.878 380.131 214.95C380.22 215.018 380.321 215.069 380.436 215.103C380.555 215.132 380.684 215.147 380.824 215.147C381.181 215.147 381.486 215.082 381.741 214.95C381.999 214.814 382.25 214.619 382.491 214.365V213.162ZM378.864 210.413C379.598 209.73 380.472 209.388 381.486 209.388C381.859 209.388 382.19 209.45 382.479 209.573C382.771 209.692 383.015 209.861 383.211 210.082C383.41 210.302 383.561 210.565 383.662 210.871C383.768 211.172 383.821 211.507 383.821 211.876V216H383.211C383.079 216 382.979 215.981 382.911 215.943C382.844 215.9 382.786 215.818 382.74 215.695L382.606 215.166C382.441 215.315 382.277 215.448 382.116 215.567C381.955 215.682 381.787 215.779 381.613 215.86C381.444 215.941 381.259 216 381.06 216.038C380.864 216.081 380.648 216.102 380.411 216.102C380.148 216.102 379.901 216.066 379.672 215.994C379.448 215.922 379.252 215.813 379.087 215.669C378.921 215.521 378.79 215.338 378.692 215.122C378.599 214.905 378.552 214.651 378.552 214.358C378.552 214.108 378.618 213.864 378.75 213.626C378.885 213.389 379.106 213.177 379.411 212.99C379.721 212.799 380.126 212.642 380.627 212.519C381.132 212.396 381.753 212.326 382.491 212.309V211.876C382.491 211.41 382.392 211.062 382.192 210.833C381.993 210.604 381.7 210.489 381.314 210.489C381.051 210.489 380.831 210.523 380.652 210.591C380.474 210.655 380.319 210.725 380.188 210.801C380.056 210.877 379.94 210.949 379.838 211.017C379.736 211.081 379.628 211.113 379.513 211.113C379.42 211.113 379.339 211.089 379.271 211.043C379.208 210.992 379.155 210.93 379.112 210.858L378.864 210.413ZM388.892 213.162C388.404 213.179 387.993 213.219 387.658 213.283C387.323 213.342 387.051 213.421 386.843 213.518C386.635 213.612 386.485 213.724 386.391 213.855C386.302 213.987 386.258 214.131 386.258 214.288C386.258 214.441 386.281 214.572 386.328 214.683C386.379 214.789 386.447 214.878 386.531 214.95C386.621 215.018 386.722 215.069 386.837 215.103C386.956 215.132 387.085 215.147 387.225 215.147C387.581 215.147 387.887 215.082 388.141 214.95C388.4 214.814 388.651 214.619 388.892 214.365V213.162ZM385.265 210.413C385.999 209.73 386.873 209.388 387.887 209.388C388.26 209.388 388.591 209.45 388.88 209.573C389.172 209.692 389.416 209.861 389.611 210.082C389.811 210.302 389.961 210.565 390.063 210.871C390.169 211.172 390.222 211.507 390.222 211.876V216H389.611C389.48 216 389.38 215.981 389.312 215.943C389.244 215.9 389.187 215.818 389.141 215.695L389.007 215.166C388.841 215.315 388.678 215.448 388.517 215.567C388.356 215.682 388.188 215.779 388.014 215.86C387.844 215.941 387.66 216 387.461 216.038C387.265 216.081 387.049 216.102 386.811 216.102C386.548 216.102 386.302 216.066 386.073 215.994C385.848 215.922 385.653 215.813 385.488 215.669C385.322 215.521 385.191 215.338 385.093 215.122C385 214.905 384.953 214.651 384.953 214.358C384.953 214.108 385.019 213.864 385.151 213.626C385.286 213.389 385.507 213.177 385.812 212.99C386.122 212.799 386.527 212.642 387.028 212.519C387.533 212.396 388.154 212.326 388.892 212.309V211.876C388.892 211.41 388.793 211.062 388.593 210.833C388.394 210.604 388.101 210.489 387.715 210.489C387.452 210.489 387.231 210.523 387.053 210.591C386.875 210.655 386.72 210.725 386.589 210.801C386.457 210.877 386.341 210.949 386.239 211.017C386.137 211.081 386.029 211.113 385.914 211.113C385.821 211.113 385.74 211.089 385.672 211.043C385.609 210.992 385.556 210.93 385.513 210.858L385.265 210.413ZM396.76 208.402C396.713 208.478 396.664 208.535 396.613 208.574C396.562 208.608 396.499 208.625 396.422 208.625C396.342 208.625 396.251 208.591 396.149 208.523C396.051 208.455 395.928 208.381 395.78 208.3C395.635 208.215 395.464 208.139 395.264 208.071C395.065 207.999 394.827 207.963 394.551 207.963C394.297 207.963 394.072 207.995 393.877 208.058C393.686 208.122 393.525 208.211 393.393 208.325C393.262 208.44 393.162 208.576 393.094 208.733C393.031 208.885 392.999 209.053 392.999 209.235C392.999 209.469 393.06 209.664 393.183 209.821C393.306 209.974 393.467 210.105 393.667 210.215C393.871 210.326 394.102 210.423 394.361 210.508C394.619 210.589 394.882 210.676 395.15 210.769C395.421 210.862 395.686 210.968 395.945 211.087C396.204 211.206 396.433 211.357 396.632 211.539C396.836 211.722 396.999 211.944 397.122 212.207C397.245 212.47 397.307 212.791 397.307 213.168C397.307 213.575 397.237 213.957 397.097 214.314C396.957 214.67 396.753 214.982 396.486 215.249C396.223 215.512 395.896 215.72 395.506 215.873C395.12 216.025 394.679 216.102 394.182 216.102C393.89 216.102 393.603 216.072 393.323 216.013C393.047 215.958 392.782 215.879 392.528 215.777C392.277 215.671 392.042 215.544 391.821 215.395C391.601 215.247 391.404 215.082 391.23 214.899L391.662 214.186C391.701 214.127 391.749 214.08 391.809 214.046C391.868 214.012 391.934 213.995 392.006 213.995C392.104 213.995 392.212 214.042 392.331 214.135C392.449 214.225 392.591 214.324 392.757 214.435C392.927 214.541 393.13 214.64 393.368 214.734C393.605 214.823 393.89 214.867 394.221 214.867C394.759 214.867 395.175 214.736 395.468 214.473C395.765 214.21 395.913 213.847 395.913 213.385C395.913 213.126 395.852 212.916 395.729 212.755C395.606 212.589 395.442 212.451 395.239 212.341C395.039 212.231 394.81 212.137 394.551 212.061C394.293 211.985 394.03 211.904 393.762 211.819C393.495 211.73 393.232 211.628 392.973 211.514C392.714 211.395 392.483 211.242 392.28 211.055C392.08 210.865 391.919 210.631 391.796 210.355C391.673 210.075 391.611 209.728 391.611 209.312C391.611 208.981 391.675 208.661 391.802 208.351C391.934 208.041 392.123 207.768 392.369 207.53C392.619 207.288 392.927 207.095 393.291 206.951C393.656 206.807 394.072 206.735 394.539 206.735C395.065 206.735 395.546 206.817 395.983 206.983C396.424 207.148 396.804 207.384 397.122 207.689L396.76 208.402Z" fill="#566E88"/>
<path opacity="0.6" d="M100.361 288.836L97.5104 298H96.1676L94.0167 291.42C93.9913 291.348 93.9658 291.269 93.9404 291.185C93.9192 291.1 93.898 291.008 93.8767 290.911C93.8555 291.008 93.8322 291.1 93.8067 291.185C93.7855 291.269 93.7622 291.348 93.7367 291.42L91.5667 298H90.224L87.3731 288.836H88.6204C88.7476 288.836 88.8537 288.868 88.9386 288.932C89.0276 288.991 89.087 289.074 89.1167 289.18L90.8349 295.054C90.8689 295.181 90.9007 295.319 90.9304 295.467C90.9601 295.616 90.9898 295.771 91.0195 295.932C91.0492 295.771 91.081 295.616 91.1149 295.467C91.1531 295.315 91.1934 295.177 91.2358 295.054L93.2022 289.18C93.2319 289.095 93.2913 289.017 93.3804 288.945C93.4695 288.872 93.5755 288.836 93.6986 288.836H94.1313C94.2628 288.836 94.3689 288.87 94.4495 288.938C94.5301 289.002 94.5916 289.082 94.634 289.18L96.594 295.054C96.6364 295.177 96.6746 295.31 96.7086 295.455C96.7467 295.595 96.7807 295.743 96.8104 295.9C96.8401 295.743 96.8676 295.595 96.8931 295.455C96.9228 295.31 96.9546 295.177 96.9886 295.054L98.7004 289.18C98.7258 289.087 98.7831 289.006 98.8722 288.938C98.9655 288.87 99.0737 288.836 99.1967 288.836H100.361ZM104.858 294.023C104.858 293.794 104.825 293.582 104.757 293.386C104.693 293.187 104.598 293.015 104.47 292.871C104.343 292.722 104.184 292.608 103.993 292.527C103.806 292.442 103.59 292.4 103.344 292.4C102.848 292.4 102.457 292.542 102.173 292.826C101.889 293.111 101.708 293.509 101.632 294.023H104.858ZM101.594 294.863C101.611 295.232 101.668 295.552 101.766 295.824C101.863 296.091 101.993 296.314 102.154 296.492C102.319 296.67 102.515 296.804 102.739 296.893C102.968 296.978 103.223 297.02 103.503 297.02C103.77 297.02 104.002 296.99 104.197 296.931C104.392 296.867 104.562 296.799 104.706 296.727C104.85 296.651 104.973 296.583 105.075 296.524C105.177 296.46 105.27 296.428 105.355 296.428C105.465 296.428 105.55 296.471 105.609 296.555L105.998 297.058C105.836 297.249 105.654 297.41 105.45 297.542C105.247 297.673 105.03 297.782 104.801 297.866C104.572 297.947 104.337 298.004 104.095 298.038C103.853 298.076 103.618 298.095 103.388 298.095C102.939 298.095 102.521 298.021 102.135 297.873C101.753 297.72 101.42 297.497 101.136 297.205C100.856 296.912 100.635 296.549 100.474 296.116C100.317 295.684 100.238 295.185 100.238 294.621C100.238 294.171 100.308 293.751 100.448 293.361C100.593 292.971 100.796 292.631 101.059 292.343C101.327 292.054 101.649 291.827 102.027 291.662C102.408 291.492 102.839 291.407 103.318 291.407C103.717 291.407 104.086 291.473 104.426 291.605C104.765 291.732 105.058 291.921 105.304 292.171C105.55 292.421 105.741 292.729 105.877 293.094C106.017 293.454 106.087 293.866 106.087 294.328C106.087 294.54 106.063 294.682 106.017 294.755C105.97 294.827 105.885 294.863 105.762 294.863H101.594ZM108.731 296.371C108.922 296.617 109.13 296.791 109.354 296.893C109.583 296.99 109.832 297.039 110.099 297.039C110.638 297.039 111.058 296.844 111.359 296.454C111.66 296.063 111.811 295.459 111.811 294.64C111.811 293.893 111.679 293.348 111.416 293.005C111.157 292.661 110.786 292.489 110.303 292.489C109.967 292.489 109.675 292.565 109.424 292.718C109.178 292.867 108.947 293.081 108.731 293.361V296.371ZM108.731 292.368C108.998 292.075 109.297 291.842 109.628 291.668C109.959 291.494 110.337 291.407 110.761 291.407C111.138 291.407 111.478 291.482 111.779 291.63C112.084 291.774 112.343 291.984 112.555 292.26C112.767 292.536 112.931 292.871 113.045 293.265C113.16 293.656 113.217 294.097 113.217 294.589C113.217 295.115 113.151 295.595 113.02 296.027C112.893 296.456 112.708 296.825 112.466 297.135C112.224 297.44 111.932 297.678 111.588 297.847C111.244 298.013 110.86 298.095 110.436 298.095C110.228 298.095 110.04 298.074 109.87 298.032C109.7 297.994 109.543 297.936 109.399 297.86C109.255 297.784 109.121 297.692 108.998 297.586C108.879 297.48 108.765 297.359 108.654 297.224L108.597 297.726C108.576 297.824 108.538 297.894 108.483 297.936C108.427 297.979 108.351 298 108.253 298H107.363V288.582H108.731V292.368ZM118.422 292.686C118.388 292.746 118.35 292.788 118.307 292.814C118.265 292.839 118.212 292.852 118.148 292.852C118.076 292.852 117.998 292.831 117.913 292.788C117.828 292.742 117.728 292.691 117.614 292.635C117.499 292.58 117.363 292.532 117.207 292.489C117.054 292.442 116.873 292.419 116.666 292.419C116.496 292.419 116.341 292.44 116.201 292.483C116.065 292.521 115.949 292.578 115.851 292.655C115.758 292.727 115.686 292.814 115.635 292.915C115.584 293.013 115.558 293.119 115.558 293.234C115.558 293.386 115.605 293.514 115.698 293.615C115.792 293.717 115.915 293.806 116.067 293.883C116.22 293.955 116.394 294.021 116.589 294.08C116.784 294.139 116.984 294.203 117.187 294.271C117.391 294.339 117.59 294.417 117.786 294.506C117.981 294.595 118.155 294.706 118.307 294.837C118.46 294.965 118.583 295.122 118.677 295.308C118.77 295.491 118.817 295.713 118.817 295.976C118.817 296.282 118.761 296.564 118.651 296.823C118.541 297.082 118.38 297.306 118.167 297.497C117.955 297.688 117.69 297.837 117.372 297.943C117.058 298.049 116.697 298.102 116.29 298.102C116.065 298.102 115.847 298.081 115.635 298.038C115.427 298 115.227 297.947 115.037 297.879C114.85 297.807 114.674 297.722 114.508 297.625C114.347 297.527 114.203 297.421 114.076 297.306L114.394 296.785C114.432 296.721 114.479 296.672 114.534 296.638C114.593 296.6 114.665 296.581 114.75 296.581C114.839 296.581 114.926 296.611 115.011 296.67C115.1 296.725 115.202 296.787 115.317 296.855C115.435 296.922 115.577 296.986 115.743 297.045C115.908 297.101 116.114 297.128 116.36 297.128C116.564 297.128 116.74 297.105 116.888 297.058C117.037 297.007 117.16 296.939 117.257 296.855C117.355 296.77 117.427 296.674 117.474 296.568C117.52 296.458 117.544 296.341 117.544 296.218C117.544 296.053 117.497 295.917 117.404 295.811C117.31 295.705 117.185 295.614 117.028 295.537C116.876 295.461 116.7 295.393 116.5 295.334C116.305 295.274 116.106 295.211 115.902 295.143C115.698 295.075 115.497 294.996 115.297 294.907C115.102 294.818 114.926 294.706 114.769 294.57C114.617 294.43 114.493 294.262 114.4 294.067C114.307 293.868 114.26 293.626 114.26 293.342C114.26 293.083 114.311 292.837 114.413 292.604C114.519 292.37 114.672 292.165 114.871 291.986C115.075 291.808 115.323 291.668 115.616 291.566C115.913 291.46 116.254 291.407 116.64 291.407C117.077 291.407 117.474 291.477 117.83 291.617C118.187 291.757 118.486 291.948 118.727 292.19L118.422 292.686ZM121.528 291.509V298H120.16V291.509H121.528ZM121.757 289.549C121.757 289.672 121.731 289.789 121.68 289.899C121.634 290.009 121.568 290.107 121.483 290.192C121.398 290.272 121.299 290.338 121.184 290.389C121.074 290.436 120.955 290.459 120.828 290.459C120.705 290.459 120.588 290.436 120.478 290.389C120.372 290.338 120.278 290.272 120.198 290.192C120.117 290.107 120.051 290.009 120 289.899C119.954 289.789 119.93 289.672 119.93 289.549C119.93 289.422 119.954 289.303 120 289.193C120.051 289.082 120.117 288.987 120.198 288.906C120.278 288.822 120.372 288.756 120.478 288.709C120.588 288.658 120.705 288.633 120.828 288.633C120.955 288.633 121.074 288.658 121.184 288.709C121.299 288.756 121.398 288.822 121.483 288.906C121.568 288.987 121.634 289.082 121.68 289.193C121.731 289.303 121.757 289.422 121.757 289.549ZM125.328 298.102C124.789 298.102 124.373 297.951 124.08 297.65C123.792 297.345 123.648 296.916 123.648 296.365V292.585H122.935C122.859 292.585 122.793 292.561 122.738 292.515C122.683 292.464 122.655 292.389 122.655 292.292V291.738L123.705 291.585L124.004 289.708C124.025 289.636 124.061 289.579 124.112 289.536C124.163 289.49 124.231 289.466 124.316 289.466H125.016V291.598H126.817V292.585H125.016V296.269C125.016 296.502 125.073 296.681 125.188 296.804C125.302 296.927 125.455 296.988 125.646 296.988C125.752 296.988 125.843 296.975 125.92 296.95C125.996 296.92 126.062 296.891 126.117 296.861C126.172 296.827 126.219 296.797 126.257 296.772C126.299 296.742 126.34 296.727 126.378 296.727C126.454 296.727 126.516 296.77 126.562 296.855L126.97 297.523C126.757 297.709 126.507 297.854 126.219 297.955C125.93 298.053 125.633 298.102 125.328 298.102ZM132.103 294.023C132.103 293.794 132.069 293.582 132.001 293.386C131.937 293.187 131.842 293.015 131.715 292.871C131.587 292.722 131.428 292.608 131.237 292.527C131.051 292.442 130.834 292.4 130.588 292.4C130.092 292.4 129.702 292.542 129.417 292.826C129.133 293.111 128.953 293.509 128.876 294.023H132.103ZM128.838 294.863C128.855 295.232 128.913 295.552 129.01 295.824C129.108 296.091 129.237 296.314 129.398 296.492C129.564 296.67 129.759 296.804 129.984 296.893C130.213 296.978 130.467 297.02 130.747 297.02C131.015 297.02 131.246 296.99 131.441 296.931C131.636 296.867 131.806 296.799 131.95 296.727C132.094 296.651 132.217 296.583 132.319 296.524C132.421 296.46 132.514 296.428 132.599 296.428C132.709 296.428 132.794 296.471 132.854 296.555L133.242 297.058C133.081 297.249 132.898 297.41 132.695 297.542C132.491 297.673 132.275 297.782 132.046 297.866C131.816 297.947 131.581 298.004 131.339 298.038C131.097 298.076 130.862 298.095 130.633 298.095C130.183 298.095 129.765 298.021 129.379 297.873C128.997 297.72 128.664 297.497 128.38 297.205C128.1 296.912 127.879 296.549 127.718 296.116C127.561 295.684 127.483 295.185 127.483 294.621C127.483 294.171 127.553 293.751 127.693 293.361C127.837 292.971 128.041 292.631 128.304 292.343C128.571 292.054 128.893 291.827 129.271 291.662C129.653 291.492 130.083 291.407 130.563 291.407C130.962 291.407 131.331 291.473 131.67 291.605C132.009 291.732 132.302 291.921 132.548 292.171C132.794 292.421 132.985 292.729 133.121 293.094C133.261 293.454 133.331 293.866 133.331 294.328C133.331 294.54 133.308 294.682 133.261 294.755C133.214 294.827 133.129 294.863 133.006 294.863H128.838Z" fill="#566E88"/>
<path opacity="0.6" d="M384.178 290.402C384.131 290.478 384.083 290.535 384.032 290.574C383.981 290.608 383.917 290.625 383.841 290.625C383.76 290.625 383.669 290.591 383.567 290.523C383.47 290.455 383.347 290.381 383.198 290.3C383.054 290.215 382.882 290.139 382.683 290.071C382.483 289.999 382.246 289.963 381.97 289.963C381.715 289.963 381.491 289.995 381.295 290.058C381.104 290.122 380.943 290.211 380.812 290.325C380.68 290.44 380.581 290.576 380.513 290.733C380.449 290.885 380.417 291.053 380.417 291.235C380.417 291.469 380.479 291.664 380.602 291.821C380.725 291.974 380.886 292.105 381.085 292.215C381.289 292.326 381.52 292.423 381.779 292.508C382.038 292.589 382.301 292.676 382.568 292.769C382.84 292.862 383.105 292.968 383.364 293.087C383.622 293.206 383.851 293.357 384.051 293.539C384.254 293.722 384.418 293.944 384.541 294.207C384.664 294.47 384.725 294.791 384.725 295.168C384.725 295.575 384.655 295.957 384.515 296.314C384.375 296.67 384.172 296.982 383.904 297.249C383.641 297.512 383.315 297.72 382.924 297.873C382.538 298.025 382.097 298.102 381.601 298.102C381.308 298.102 381.022 298.072 380.742 298.013C380.466 297.958 380.201 297.879 379.946 297.777C379.696 297.671 379.461 297.544 379.24 297.395C379.019 297.247 378.822 297.082 378.648 296.899L379.081 296.186C379.119 296.127 379.168 296.08 379.227 296.046C379.287 296.012 379.352 295.995 379.424 295.995C379.522 295.995 379.63 296.042 379.749 296.135C379.868 296.225 380.01 296.324 380.175 296.435C380.345 296.541 380.549 296.64 380.786 296.734C381.024 296.823 381.308 296.867 381.639 296.867C382.178 296.867 382.594 296.736 382.886 296.473C383.183 296.21 383.332 295.847 383.332 295.385C383.332 295.126 383.27 294.916 383.147 294.755C383.024 294.589 382.861 294.451 382.657 294.341C382.458 294.231 382.229 294.137 381.97 294.061C381.711 293.985 381.448 293.904 381.181 293.819C380.914 293.73 380.651 293.628 380.392 293.514C380.133 293.395 379.902 293.242 379.698 293.055C379.499 292.865 379.338 292.631 379.214 292.355C379.091 292.075 379.03 291.728 379.03 291.312C379.03 290.981 379.094 290.661 379.221 290.351C379.352 290.041 379.541 289.768 379.787 289.53C380.038 289.288 380.345 289.095 380.71 288.951C381.075 288.807 381.491 288.735 381.957 288.735C382.483 288.735 382.965 288.817 383.402 288.983C383.843 289.148 384.223 289.384 384.541 289.689L384.178 290.402ZM387.348 292.279C387.616 292.016 387.908 291.806 388.226 291.649C388.545 291.488 388.916 291.407 389.34 291.407C389.696 291.407 390.008 291.467 390.276 291.585C390.547 291.704 390.774 291.872 390.956 292.088C391.143 292.305 391.283 292.565 391.376 292.871C391.47 293.172 391.516 293.505 391.516 293.87V298H390.155V293.87C390.155 293.433 390.053 293.094 389.849 292.852C389.65 292.61 389.344 292.489 388.933 292.489C388.627 292.489 388.343 292.559 388.08 292.699C387.821 292.839 387.577 293.03 387.348 293.272V298H385.98V288.582H387.348V292.279ZM396.583 295.162C396.095 295.179 395.683 295.219 395.348 295.283C395.013 295.342 394.741 295.421 394.533 295.518C394.326 295.612 394.175 295.724 394.082 295.855C393.993 295.987 393.948 296.131 393.948 296.288C393.948 296.441 393.971 296.572 394.018 296.683C394.069 296.789 394.137 296.878 394.222 296.95C394.311 297.018 394.413 297.069 394.527 297.103C394.646 297.132 394.775 297.147 394.915 297.147C395.272 297.147 395.577 297.082 395.832 296.95C396.09 296.814 396.341 296.619 396.583 296.365V295.162ZM392.955 292.413C393.689 291.73 394.563 291.388 395.577 291.388C395.95 291.388 396.281 291.45 396.57 291.573C396.863 291.692 397.106 291.861 397.302 292.082C397.501 292.302 397.652 292.565 397.753 292.871C397.86 293.172 397.913 293.507 397.913 293.876V298H397.302C397.17 298 397.07 297.981 397.003 297.943C396.935 297.9 396.877 297.818 396.831 297.695L396.697 297.166C396.532 297.315 396.368 297.448 396.207 297.567C396.046 297.682 395.878 297.779 395.704 297.86C395.535 297.941 395.35 298 395.151 298.038C394.956 298.081 394.739 298.102 394.502 298.102C394.239 298.102 393.993 298.066 393.763 297.994C393.539 297.922 393.343 297.813 393.178 297.669C393.013 297.521 392.881 297.338 392.783 297.122C392.69 296.905 392.643 296.651 392.643 296.358C392.643 296.108 392.709 295.864 392.841 295.626C392.976 295.389 393.197 295.177 393.503 294.99C393.812 294.799 394.217 294.642 394.718 294.519C395.223 294.396 395.844 294.326 396.583 294.309V293.876C396.583 293.41 396.483 293.062 396.283 292.833C396.084 292.604 395.791 292.489 395.405 292.489C395.142 292.489 394.922 292.523 394.743 292.591C394.565 292.655 394.41 292.725 394.279 292.801C394.147 292.877 394.031 292.949 393.929 293.017C393.827 293.081 393.719 293.113 393.604 293.113C393.511 293.113 393.43 293.089 393.363 293.043C393.299 292.992 393.246 292.93 393.203 292.858L392.955 292.413ZM400.883 292.279C401.151 292.016 401.443 291.806 401.762 291.649C402.08 291.488 402.451 291.407 402.875 291.407C403.232 291.407 403.543 291.467 403.811 291.585C404.082 291.704 404.309 291.872 404.492 292.088C404.678 292.305 404.818 292.565 404.912 292.871C405.005 293.172 405.052 293.505 405.052 293.87V298H403.69V293.87C403.69 293.433 403.588 293.094 403.384 292.852C403.185 292.61 402.88 292.489 402.468 292.489C402.163 292.489 401.878 292.559 401.615 292.699C401.356 292.839 401.113 293.03 400.883 293.272V298H399.515V288.582H400.883V292.279ZM407.941 292.712C408.145 292.3 408.391 291.978 408.68 291.745C408.968 291.507 409.314 291.388 409.717 291.388C409.857 291.388 409.988 291.405 410.111 291.439C410.234 291.469 410.345 291.515 410.442 291.579L410.347 292.61C410.33 292.682 410.302 292.733 410.264 292.763C410.23 292.788 410.183 292.801 410.124 292.801C410.06 292.801 409.969 292.79 409.85 292.769C409.732 292.744 409.606 292.731 409.475 292.731C409.284 292.731 409.114 292.758 408.966 292.814C408.822 292.869 408.69 292.949 408.571 293.055C408.457 293.162 408.355 293.291 408.266 293.444C408.177 293.596 408.094 293.77 408.018 293.965V298H406.65V291.509H407.445C407.589 291.509 407.689 291.537 407.744 291.592C407.799 291.643 407.837 291.734 407.859 291.865L407.941 292.712ZM412.773 291.509V298H411.405V291.509H412.773ZM413.002 289.549C413.002 289.672 412.977 289.789 412.926 289.899C412.879 290.009 412.813 290.107 412.729 290.192C412.644 290.272 412.544 290.338 412.429 290.389C412.319 290.436 412.2 290.459 412.073 290.459C411.95 290.459 411.833 290.436 411.723 290.389C411.617 290.338 411.524 290.272 411.443 290.192C411.363 290.107 411.297 290.009 411.246 289.899C411.199 289.789 411.176 289.672 411.176 289.549C411.176 289.422 411.199 289.303 411.246 289.193C411.297 289.082 411.363 288.987 411.443 288.906C411.524 288.822 411.617 288.756 411.723 288.709C411.833 288.658 411.95 288.633 412.073 288.633C412.2 288.633 412.319 288.658 412.429 288.709C412.544 288.756 412.644 288.822 412.729 288.906C412.813 288.987 412.879 289.082 412.926 289.193C412.977 289.303 413.002 289.422 413.002 289.549ZM420.251 291.509L416.675 299.845C416.628 299.943 416.571 300.019 416.503 300.075C416.439 300.13 416.34 300.157 416.204 300.157H415.192L416.389 297.561L413.741 291.509H414.931C415.046 291.509 415.133 291.537 415.192 291.592C415.256 291.643 415.302 291.704 415.332 291.776L416.879 295.461C416.917 295.567 416.951 295.673 416.98 295.779C417.014 295.881 417.046 295.987 417.076 296.097C417.11 295.987 417.144 295.879 417.178 295.773C417.212 295.667 417.25 295.561 417.292 295.455L418.775 291.776C418.805 291.7 418.853 291.636 418.921 291.585C418.993 291.535 419.072 291.509 419.157 291.509H420.251ZM424.473 295.162C423.985 295.179 423.574 295.219 423.239 295.283C422.903 295.342 422.632 295.421 422.424 295.518C422.216 295.612 422.066 295.724 421.972 295.855C421.883 295.987 421.839 296.131 421.839 296.288C421.839 296.441 421.862 296.572 421.909 296.683C421.96 296.789 422.027 296.878 422.112 296.95C422.201 297.018 422.303 297.069 422.418 297.103C422.536 297.132 422.666 297.147 422.806 297.147C423.162 297.147 423.468 297.082 423.722 296.95C423.981 296.814 424.231 296.619 424.473 296.365V295.162ZM420.846 292.413C421.58 291.73 422.454 291.388 423.468 291.388C423.841 291.388 424.172 291.45 424.46 291.573C424.753 291.692 424.997 291.861 425.192 292.082C425.392 292.302 425.542 292.565 425.644 292.871C425.75 293.172 425.803 293.507 425.803 293.876V298H425.192C425.061 298 424.961 297.981 424.893 297.943C424.825 297.9 424.768 297.818 424.721 297.695L424.588 297.166C424.422 297.315 424.259 297.448 424.098 297.567C423.936 297.682 423.769 297.779 423.595 297.86C423.425 297.941 423.241 298 423.041 298.038C422.846 298.081 422.63 298.102 422.392 298.102C422.129 298.102 421.883 298.066 421.654 297.994C421.429 297.922 421.234 297.813 421.069 297.669C420.903 297.521 420.772 297.338 420.674 297.122C420.581 296.905 420.534 296.651 420.534 296.358C420.534 296.108 420.6 295.864 420.731 295.626C420.867 295.389 421.088 295.177 421.393 294.99C421.703 294.799 422.108 294.642 422.609 294.519C423.113 294.396 423.735 294.326 424.473 294.309V293.876C424.473 293.41 424.373 293.062 424.174 292.833C423.975 292.604 423.682 292.489 423.296 292.489C423.033 292.489 422.812 292.523 422.634 292.591C422.456 292.655 422.301 292.725 422.17 292.801C422.038 292.877 421.921 292.949 421.82 293.017C421.718 293.081 421.61 293.113 421.495 293.113C421.402 293.113 421.321 293.089 421.253 293.043C421.19 292.992 421.136 292.93 421.094 292.858L420.846 292.413ZM428.698 292.712C428.901 292.3 429.147 291.978 429.436 291.745C429.724 291.507 430.07 291.388 430.473 291.388C430.613 291.388 430.745 291.405 430.868 291.439C430.991 291.469 431.101 291.515 431.199 291.579L431.103 292.61C431.086 292.682 431.059 292.733 431.02 292.763C430.987 292.788 430.94 292.801 430.88 292.801C430.817 292.801 430.726 292.79 430.607 292.769C430.488 292.744 430.363 292.731 430.231 292.731C430.04 292.731 429.871 292.758 429.722 292.814C429.578 292.869 429.447 292.949 429.328 293.055C429.213 293.162 429.111 293.291 429.022 293.444C428.933 293.596 428.85 293.77 428.774 293.965V298H427.406V291.509H428.201C428.346 291.509 428.445 291.537 428.5 291.592C428.556 291.643 428.594 291.734 428.615 291.865L428.698 292.712ZM443.298 293.418C443.298 294.097 443.188 294.718 442.967 295.283C442.747 295.843 442.435 296.324 442.032 296.727C441.633 297.13 441.152 297.444 440.587 297.669C440.027 297.89 439.404 298 438.716 298H435.255V288.836H438.716C439.404 288.836 440.027 288.949 440.587 289.174C441.152 289.394 441.633 289.706 442.032 290.109C442.435 290.512 442.747 290.996 442.967 291.56C443.188 292.12 443.298 292.739 443.298 293.418ZM441.777 293.418C441.777 292.892 441.705 292.419 441.561 291.999C441.421 291.579 441.217 291.225 440.95 290.936C440.687 290.648 440.367 290.427 439.989 290.275C439.612 290.118 439.187 290.039 438.716 290.039H436.75V296.797H438.716C439.187 296.797 439.612 296.721 439.989 296.568C440.367 296.415 440.687 296.195 440.95 295.906C441.217 295.614 441.421 295.259 441.561 294.844C441.705 294.424 441.777 293.948 441.777 293.418ZM448.271 296.823C448.606 296.823 448.889 296.785 449.118 296.708C449.351 296.628 449.54 296.519 449.684 296.384C449.832 296.248 449.939 296.089 450.002 295.906C450.07 295.72 450.104 295.52 450.104 295.308C450.104 294.875 449.956 294.536 449.659 294.29C449.366 294.04 448.901 293.915 448.265 293.915H446.426V296.823H448.271ZM446.426 290.001V292.865H447.915C448.551 292.865 449.026 292.742 449.34 292.495C449.654 292.249 449.811 291.895 449.811 291.433C449.811 290.928 449.663 290.563 449.366 290.338C449.073 290.113 448.613 290.001 447.985 290.001H446.426ZM447.985 288.836C448.57 288.836 449.071 288.894 449.487 289.008C449.902 289.118 450.244 289.278 450.511 289.485C450.779 289.693 450.974 289.948 451.097 290.249C451.224 290.546 451.288 290.881 451.288 291.255C451.288 291.471 451.254 291.681 451.186 291.885C451.122 292.084 451.02 292.273 450.88 292.451C450.745 292.625 450.573 292.782 450.365 292.922C450.157 293.062 449.911 293.178 449.627 293.272C450.925 293.548 451.574 294.237 451.574 295.34C451.574 295.73 451.5 296.089 451.351 296.415C451.207 296.738 450.995 297.018 450.715 297.255C450.439 297.489 450.098 297.671 449.69 297.803C449.283 297.934 448.819 298 448.297 298H444.937V288.836H447.985ZM456.366 295.162C455.878 295.179 455.467 295.219 455.131 295.283C454.796 295.342 454.525 295.421 454.317 295.518C454.109 295.612 453.958 295.724 453.865 295.855C453.776 295.987 453.731 296.131 453.731 296.288C453.731 296.441 453.755 296.572 453.801 296.683C453.852 296.789 453.92 296.878 454.005 296.95C454.094 297.018 454.196 297.069 454.31 297.103C454.429 297.132 454.559 297.147 454.699 297.147C455.055 297.147 455.36 297.082 455.615 296.95C455.874 296.814 456.124 296.619 456.366 296.365V295.162ZM452.739 292.413C453.473 291.73 454.347 291.388 455.36 291.388C455.734 291.388 456.065 291.45 456.353 291.573C456.646 291.692 456.89 291.861 457.085 292.082C457.284 292.302 457.435 292.565 457.537 292.871C457.643 293.172 457.696 293.507 457.696 293.876V298H457.085C456.953 298 456.854 297.981 456.786 297.943C456.718 297.9 456.661 297.818 456.614 297.695L456.48 297.166C456.315 297.315 456.152 297.448 455.99 297.567C455.829 297.682 455.662 297.779 455.488 297.86C455.318 297.941 455.133 298 454.934 298.038C454.739 298.081 454.523 298.102 454.285 298.102C454.022 298.102 453.776 298.066 453.547 297.994C453.322 297.922 453.127 297.813 452.961 297.669C452.796 297.521 452.664 297.338 452.567 297.122C452.473 296.905 452.427 296.651 452.427 296.358C452.427 296.108 452.493 295.864 452.624 295.626C452.76 295.389 452.98 295.177 453.286 294.99C453.596 294.799 454.001 294.642 454.501 294.519C455.006 294.396 455.628 294.326 456.366 294.309V293.876C456.366 293.41 456.266 293.062 456.067 292.833C455.867 292.604 455.575 292.489 455.189 292.489C454.926 292.489 454.705 292.523 454.527 292.591C454.349 292.655 454.194 292.725 454.062 292.801C453.931 292.877 453.814 292.949 453.712 293.017C453.61 293.081 453.502 293.113 453.388 293.113C453.294 293.113 453.214 293.089 453.146 293.043C453.082 292.992 453.029 292.93 452.987 292.858L452.739 292.413ZM462.767 295.162C462.279 295.179 461.867 295.219 461.532 295.283C461.197 295.342 460.926 295.421 460.718 295.518C460.51 295.612 460.359 295.724 460.266 295.855C460.177 295.987 460.132 296.131 460.132 296.288C460.132 296.441 460.156 296.572 460.202 296.683C460.253 296.789 460.321 296.878 460.406 296.95C460.495 297.018 460.597 297.069 460.711 297.103C460.83 297.132 460.96 297.147 461.1 297.147C461.456 297.147 461.761 297.082 462.016 296.95C462.275 296.814 462.525 296.619 462.767 296.365V295.162ZM459.14 292.413C459.874 291.73 460.747 291.388 461.761 291.388C462.135 291.388 462.466 291.45 462.754 291.573C463.047 291.692 463.291 291.861 463.486 292.082C463.685 292.302 463.836 292.565 463.938 292.871C464.044 293.172 464.097 293.507 464.097 293.876V298H463.486C463.354 298 463.255 297.981 463.187 297.943C463.119 297.9 463.062 297.818 463.015 297.695L462.881 297.166C462.716 297.315 462.553 297.448 462.391 297.567C462.23 297.682 462.063 297.779 461.889 297.86C461.719 297.941 461.534 298 461.335 298.038C461.14 298.081 460.924 298.102 460.686 298.102C460.423 298.102 460.177 298.066 459.948 297.994C459.723 297.922 459.528 297.813 459.362 297.669C459.197 297.521 459.065 297.338 458.968 297.122C458.874 296.905 458.828 296.651 458.828 296.358C458.828 296.108 458.894 295.864 459.025 295.626C459.161 295.389 459.381 295.177 459.687 294.99C459.997 294.799 460.402 294.642 460.902 294.519C461.407 294.396 462.029 294.326 462.767 294.309V293.876C462.767 293.41 462.667 293.062 462.468 292.833C462.268 292.604 461.976 292.489 461.59 292.489C461.327 292.489 461.106 292.523 460.928 292.591C460.75 292.655 460.595 292.725 460.463 292.801C460.332 292.877 460.215 292.949 460.113 293.017C460.011 293.081 459.903 293.113 459.789 293.113C459.695 293.113 459.615 293.089 459.547 293.043C459.483 292.992 459.43 292.93 459.388 292.858L459.14 292.413ZM470.634 290.402C470.587 290.478 470.539 290.535 470.488 290.574C470.437 290.608 470.373 290.625 470.297 290.625C470.216 290.625 470.125 290.591 470.023 290.523C469.926 290.455 469.803 290.381 469.654 290.3C469.51 290.215 469.338 290.139 469.139 290.071C468.939 289.999 468.702 289.963 468.426 289.963C468.171 289.963 467.947 289.995 467.751 290.058C467.56 290.122 467.399 290.211 467.268 290.325C467.136 290.44 467.037 290.576 466.969 290.733C466.905 290.885 466.873 291.053 466.873 291.235C466.873 291.469 466.935 291.664 467.058 291.821C467.181 291.974 467.342 292.105 467.541 292.215C467.745 292.326 467.976 292.423 468.235 292.508C468.494 292.589 468.757 292.676 469.024 292.769C469.296 292.862 469.561 292.968 469.82 293.087C470.078 293.206 470.307 293.357 470.507 293.539C470.71 293.722 470.874 293.944 470.997 294.207C471.12 294.47 471.181 294.791 471.181 295.168C471.181 295.575 471.111 295.957 470.971 296.314C470.831 296.67 470.628 296.982 470.36 297.249C470.097 297.512 469.771 297.72 469.38 297.873C468.994 298.025 468.553 298.102 468.057 298.102C467.764 298.102 467.478 298.072 467.198 298.013C466.922 297.958 466.657 297.879 466.402 297.777C466.152 297.671 465.917 297.544 465.696 297.395C465.475 297.247 465.278 297.082 465.104 296.899L465.537 296.186C465.575 296.127 465.624 296.08 465.683 296.046C465.743 296.012 465.808 295.995 465.88 295.995C465.978 295.995 466.086 296.042 466.205 296.135C466.324 296.225 466.466 296.324 466.631 296.435C466.801 296.541 467.005 296.64 467.242 296.734C467.48 296.823 467.764 296.867 468.095 296.867C468.634 296.867 469.05 296.736 469.342 296.473C469.639 296.21 469.788 295.847 469.788 295.385C469.788 295.126 469.726 294.916 469.603 294.755C469.48 294.589 469.317 294.451 469.113 294.341C468.914 294.231 468.685 294.137 468.426 294.061C468.167 293.985 467.904 293.904 467.637 293.819C467.37 293.73 467.107 293.628 466.848 293.514C466.589 293.395 466.358 293.242 466.154 293.055C465.955 292.865 465.793 292.631 465.67 292.355C465.547 292.075 465.486 291.728 465.486 291.312C465.486 290.981 465.55 290.661 465.677 290.351C465.808 290.041 465.997 289.768 466.243 289.53C466.493 289.288 466.801 289.095 467.166 288.951C467.531 288.807 467.947 288.735 468.413 288.735C468.939 288.735 469.421 288.817 469.858 288.983C470.299 289.148 470.679 289.384 470.997 289.689L470.634 290.402Z" fill="#566E88"/>
<path opacity="0.6" d="M374.085 372.402C374.038 372.478 373.989 372.535 373.938 372.574C373.887 372.608 373.824 372.625 373.747 372.625C373.667 372.625 373.575 372.591 373.474 372.523C373.376 372.455 373.253 372.381 373.105 372.3C372.96 372.215 372.788 372.139 372.589 372.071C372.39 371.999 372.152 371.963 371.876 371.963C371.622 371.963 371.397 371.995 371.202 372.058C371.011 372.122 370.85 372.211 370.718 372.325C370.587 372.44 370.487 372.576 370.419 372.733C370.355 372.885 370.324 373.053 370.324 373.235C370.324 373.469 370.385 373.664 370.508 373.821C370.631 373.974 370.792 374.105 370.992 374.215C371.195 374.326 371.427 374.423 371.685 374.508C371.944 374.589 372.207 374.676 372.475 374.769C372.746 374.862 373.011 374.968 373.27 375.087C373.529 375.206 373.758 375.357 373.957 375.539C374.161 375.722 374.324 375.944 374.447 376.207C374.57 376.47 374.632 376.791 374.632 377.168C374.632 377.575 374.562 377.957 374.422 378.314C374.282 378.67 374.078 378.982 373.811 379.249C373.548 379.512 373.221 379.72 372.831 379.873C372.445 380.025 372.004 380.102 371.507 380.102C371.215 380.102 370.928 380.072 370.648 380.013C370.372 379.958 370.107 379.879 369.853 379.777C369.602 379.671 369.367 379.544 369.146 379.395C368.926 379.247 368.728 379.082 368.555 378.899L368.987 378.186C369.025 378.127 369.074 378.08 369.134 378.046C369.193 378.012 369.259 377.995 369.331 377.995C369.428 377.995 369.537 378.042 369.655 378.135C369.774 378.225 369.916 378.324 370.082 378.435C370.252 378.541 370.455 378.64 370.693 378.734C370.93 378.823 371.215 378.867 371.545 378.867C372.084 378.867 372.5 378.736 372.793 378.473C373.09 378.21 373.238 377.847 373.238 377.385C373.238 377.126 373.177 376.916 373.054 376.755C372.931 376.589 372.767 376.451 372.564 376.341C372.364 376.231 372.135 376.137 371.876 376.061C371.618 375.985 371.355 375.904 371.087 375.819C370.82 375.73 370.557 375.628 370.298 375.514C370.039 375.395 369.808 375.242 369.605 375.055C369.405 374.865 369.244 374.631 369.121 374.355C368.998 374.075 368.936 373.728 368.936 373.312C368.936 372.981 369 372.661 369.127 372.351C369.259 372.041 369.448 371.768 369.694 371.53C369.944 371.288 370.252 371.095 370.616 370.951C370.981 370.807 371.397 370.735 371.864 370.735C372.39 370.735 372.871 370.817 373.308 370.983C373.749 371.148 374.129 371.384 374.447 371.689L374.085 372.402ZM377.362 373.509V380H375.994V373.509H377.362ZM377.591 371.549C377.591 371.672 377.565 371.789 377.514 371.899C377.468 372.009 377.402 372.107 377.317 372.192C377.232 372.272 377.133 372.338 377.018 372.389C376.908 372.436 376.789 372.459 376.662 372.459C376.539 372.459 376.422 372.436 376.312 372.389C376.206 372.338 376.112 372.272 376.032 372.192C375.951 372.107 375.885 372.009 375.834 371.899C375.788 371.789 375.764 371.672 375.764 371.549C375.764 371.422 375.788 371.303 375.834 371.193C375.885 371.082 375.951 370.987 376.032 370.906C376.112 370.822 376.206 370.756 376.312 370.709C376.422 370.658 376.539 370.633 376.662 370.633C376.789 370.633 376.908 370.658 377.018 370.709C377.133 370.756 377.232 370.822 377.317 370.906C377.402 370.987 377.468 371.082 377.514 371.193C377.565 371.303 377.591 371.422 377.591 371.549ZM379.081 380V373.509H379.908C380.095 373.509 380.214 373.596 380.264 373.77L380.354 374.336C380.472 374.201 380.595 374.078 380.723 373.967C380.85 373.853 380.986 373.755 381.13 373.675C381.278 373.59 381.435 373.524 381.601 373.477C381.77 373.431 381.953 373.407 382.148 373.407C382.356 373.407 382.547 373.437 382.721 373.496C382.895 373.556 383.047 373.641 383.179 373.751C383.315 373.861 383.431 373.995 383.529 374.152C383.627 374.309 383.707 374.485 383.771 374.68C383.868 374.455 383.991 374.262 384.14 374.101C384.288 373.94 384.454 373.808 384.636 373.706C384.819 373.605 385.012 373.53 385.215 373.484C385.423 373.433 385.633 373.407 385.845 373.407C386.193 373.407 386.503 373.462 386.774 373.573C387.05 373.683 387.281 373.844 387.468 374.056C387.659 374.264 387.803 374.521 387.901 374.826C387.998 375.132 388.047 375.48 388.047 375.87V380H386.679V375.87C386.679 375.412 386.579 375.068 386.38 374.839C386.185 374.606 385.894 374.489 385.508 374.489C385.334 374.489 385.171 374.519 385.018 374.578C384.865 374.638 384.732 374.725 384.617 374.839C384.503 374.954 384.411 375.098 384.344 375.272C384.28 375.442 384.248 375.641 384.248 375.87V380H382.88V375.87C382.88 375.395 382.784 375.047 382.594 374.826C382.403 374.602 382.123 374.489 381.754 374.489C381.499 374.489 381.264 374.555 381.047 374.686C380.831 374.814 380.631 374.99 380.449 375.215V380H379.081ZM391.071 373.509V380H389.703V373.509H391.071ZM391.3 371.549C391.3 371.672 391.275 371.789 391.224 371.899C391.177 372.009 391.111 372.107 391.026 372.192C390.941 372.272 390.842 372.338 390.727 372.389C390.617 372.436 390.498 372.459 390.371 372.459C390.248 372.459 390.131 372.436 390.021 372.389C389.915 372.338 389.821 372.272 389.741 372.192C389.66 372.107 389.595 372.009 389.544 371.899C389.497 371.789 389.474 371.672 389.474 371.549C389.474 371.422 389.497 371.303 389.544 371.193C389.595 371.082 389.66 370.987 389.741 370.906C389.821 370.822 389.915 370.756 390.021 370.709C390.131 370.658 390.248 370.633 390.371 370.633C390.498 370.633 390.617 370.658 390.727 370.709C390.842 370.756 390.941 370.822 391.026 370.906C391.111 370.987 391.177 371.082 391.224 371.193C391.275 371.303 391.3 371.422 391.3 371.549ZM394.069 374.368C394.209 374.224 394.353 374.095 394.502 373.98C394.655 373.861 394.816 373.759 394.985 373.675C395.155 373.59 395.335 373.524 395.526 373.477C395.717 373.431 395.925 373.407 396.15 373.407C396.506 373.407 396.818 373.467 397.085 373.585C397.357 373.704 397.584 373.872 397.766 374.088C397.953 374.305 398.093 374.565 398.186 374.871C398.28 375.172 398.326 375.505 398.326 375.87V380H396.965V375.87C396.965 375.433 396.863 375.094 396.659 374.852C396.46 374.61 396.154 374.489 395.743 374.489C395.437 374.489 395.153 374.559 394.89 374.699C394.631 374.839 394.387 375.03 394.158 375.272V380H392.79V373.509H393.617C393.804 373.509 393.923 373.596 393.974 373.77L394.069 374.368ZM411.392 375.418C411.392 376.097 411.281 376.718 411.061 377.283C410.84 377.843 410.528 378.324 410.125 378.727C409.727 379.13 409.245 379.444 408.681 379.669C408.121 379.89 407.497 380 406.81 380H403.348V370.836H406.81C407.497 370.836 408.121 370.949 408.681 371.174C409.245 371.394 409.727 371.706 410.125 372.109C410.528 372.512 410.84 372.996 411.061 373.56C411.281 374.12 411.392 374.739 411.392 375.418ZM409.871 375.418C409.871 374.892 409.799 374.419 409.654 373.999C409.514 373.579 409.311 373.225 409.044 372.936C408.781 372.648 408.46 372.427 408.083 372.275C407.705 372.118 407.281 372.039 406.81 372.039H404.844V378.797H406.81C407.281 378.797 407.705 378.721 408.083 378.568C408.46 378.415 408.781 378.195 409.044 377.906C409.311 377.614 409.514 377.259 409.654 376.844C409.799 376.424 409.871 375.948 409.871 375.418ZM416.365 378.823C416.7 378.823 416.982 378.785 417.211 378.708C417.445 378.628 417.633 378.519 417.778 378.384C417.926 378.248 418.032 378.089 418.096 377.906C418.164 377.72 418.198 377.52 418.198 377.308C418.198 376.875 418.049 376.536 417.752 376.29C417.459 376.04 416.995 375.915 416.358 375.915H414.519V378.823H416.365ZM414.519 372.001V374.865H416.008C416.645 374.865 417.12 374.742 417.434 374.495C417.748 374.249 417.905 373.895 417.905 373.433C417.905 372.928 417.756 372.563 417.459 372.338C417.167 372.113 416.706 372.001 416.078 372.001H414.519ZM416.078 370.836C416.664 370.836 417.165 370.894 417.58 371.008C417.996 371.118 418.338 371.278 418.605 371.485C418.872 371.693 419.067 371.948 419.19 372.249C419.318 372.546 419.381 372.881 419.381 373.255C419.381 373.471 419.347 373.681 419.279 373.885C419.216 374.084 419.114 374.273 418.974 374.451C418.838 374.625 418.666 374.782 418.458 374.922C418.251 375.062 418.005 375.178 417.72 375.272C419.018 375.548 419.668 376.237 419.668 377.34C419.668 377.73 419.593 378.089 419.445 378.415C419.301 378.738 419.088 379.018 418.808 379.255C418.533 379.489 418.191 379.671 417.784 379.803C417.377 379.934 416.912 380 416.39 380H413.03V370.836H416.078ZM424.459 377.162C423.972 377.179 423.56 377.219 423.225 377.283C422.89 377.342 422.618 377.421 422.41 377.518C422.203 377.612 422.052 377.724 421.959 377.855C421.869 377.987 421.825 378.131 421.825 378.288C421.825 378.441 421.848 378.572 421.895 378.683C421.946 378.789 422.014 378.878 422.099 378.95C422.188 379.018 422.289 379.069 422.404 379.103C422.523 379.132 422.652 379.147 422.792 379.147C423.149 379.147 423.454 379.082 423.709 378.95C423.967 378.814 424.218 378.619 424.459 378.365V377.162ZM420.832 374.413C421.566 373.73 422.44 373.388 423.454 373.388C423.827 373.388 424.158 373.45 424.447 373.573C424.739 373.692 424.983 373.861 425.179 374.082C425.378 374.302 425.529 374.565 425.63 374.871C425.736 375.172 425.789 375.507 425.789 375.876V380H425.179C425.047 380 424.947 379.981 424.879 379.943C424.812 379.9 424.754 379.818 424.708 379.695L424.574 379.166C424.409 379.315 424.245 379.448 424.084 379.567C423.923 379.682 423.755 379.779 423.581 379.86C423.412 379.941 423.227 380 423.028 380.038C422.833 380.081 422.616 380.102 422.379 380.102C422.116 380.102 421.869 380.066 421.64 379.994C421.416 379.922 421.22 379.813 421.055 379.669C420.889 379.521 420.758 379.338 420.66 379.122C420.567 378.905 420.52 378.651 420.52 378.358C420.52 378.108 420.586 377.864 420.718 377.626C420.853 377.389 421.074 377.177 421.379 376.99C421.689 376.799 422.094 376.642 422.595 376.519C423.1 376.396 423.721 376.326 424.459 376.309V375.876C424.459 375.41 424.36 375.062 424.16 374.833C423.961 374.604 423.668 374.489 423.282 374.489C423.019 374.489 422.799 374.523 422.62 374.591C422.442 374.655 422.287 374.725 422.156 374.801C422.024 374.877 421.908 374.949 421.806 375.017C421.704 375.081 421.596 375.113 421.481 375.113C421.388 375.113 421.307 375.089 421.239 375.043C421.176 374.992 421.123 374.93 421.08 374.858L420.832 374.413ZM430.86 377.162C430.373 377.179 429.961 377.219 429.626 377.283C429.291 377.342 429.019 377.421 428.811 377.518C428.603 377.612 428.453 377.724 428.36 377.855C428.27 377.987 428.226 378.131 428.226 378.288C428.226 378.441 428.249 378.572 428.296 378.683C428.347 378.789 428.415 378.878 428.5 378.95C428.589 379.018 428.69 379.069 428.805 379.103C428.924 379.132 429.053 379.147 429.193 379.147C429.55 379.147 429.855 379.082 430.11 378.95C430.368 378.814 430.619 378.619 430.86 378.365V377.162ZM427.233 374.413C427.967 373.73 428.841 373.388 429.855 373.388C430.228 373.388 430.559 373.45 430.848 373.573C431.14 373.692 431.384 373.861 431.58 374.082C431.779 374.302 431.93 374.565 432.031 374.871C432.137 375.172 432.19 375.507 432.19 375.876V380H431.58C431.448 380 431.348 379.981 431.28 379.943C431.213 379.9 431.155 379.818 431.109 379.695L430.975 379.166C430.81 379.315 430.646 379.448 430.485 379.567C430.324 379.682 430.156 379.779 429.982 379.86C429.813 379.941 429.628 380 429.429 380.038C429.233 380.081 429.017 380.102 428.78 380.102C428.516 380.102 428.27 380.066 428.041 379.994C427.816 379.922 427.621 379.813 427.456 379.669C427.29 379.521 427.159 379.338 427.061 379.122C426.968 378.905 426.921 378.651 426.921 378.358C426.921 378.108 426.987 377.864 427.119 377.626C427.254 377.389 427.475 377.177 427.78 376.99C428.09 376.799 428.495 376.642 428.996 376.519C429.501 376.396 430.122 376.326 430.86 376.309V375.876C430.86 375.41 430.761 375.062 430.561 374.833C430.362 374.604 430.069 374.489 429.683 374.489C429.42 374.489 429.2 374.523 429.021 374.591C428.843 374.655 428.688 374.725 428.557 374.801C428.425 374.877 428.309 374.949 428.207 375.017C428.105 375.081 427.997 375.113 427.882 375.113C427.789 375.113 427.708 375.089 427.64 375.043C427.577 374.992 427.524 374.93 427.481 374.858L427.233 374.413ZM438.728 372.402C438.681 372.478 438.632 372.535 438.581 372.574C438.53 372.608 438.467 372.625 438.39 372.625C438.31 372.625 438.219 372.591 438.117 372.523C438.019 372.455 437.896 372.381 437.748 372.3C437.603 372.215 437.432 372.139 437.232 372.071C437.033 371.999 436.795 371.963 436.519 371.963C436.265 371.963 436.04 371.995 435.845 372.058C435.654 372.122 435.493 372.211 435.361 372.325C435.23 372.44 435.13 372.576 435.062 372.733C434.999 372.885 434.967 373.053 434.967 373.235C434.967 373.469 435.028 373.664 435.151 373.821C435.274 373.974 435.436 374.105 435.635 374.215C435.839 374.326 436.07 374.423 436.329 374.508C436.587 374.589 436.85 374.676 437.118 374.769C437.389 374.862 437.654 374.968 437.913 375.087C438.172 375.206 438.401 375.357 438.6 375.539C438.804 375.722 438.967 375.944 439.09 376.207C439.213 376.47 439.275 376.791 439.275 377.168C439.275 377.575 439.205 377.957 439.065 378.314C438.925 378.67 438.721 378.982 438.454 379.249C438.191 379.512 437.864 379.72 437.474 379.873C437.088 380.025 436.647 380.102 436.15 380.102C435.858 380.102 435.571 380.072 435.291 380.013C435.016 379.958 434.75 379.879 434.496 379.777C434.246 379.671 434.01 379.544 433.789 379.395C433.569 379.247 433.372 379.082 433.198 378.899L433.63 378.186C433.669 378.127 433.717 378.08 433.777 378.046C433.836 378.012 433.902 377.995 433.974 377.995C434.072 377.995 434.18 378.042 434.299 378.135C434.417 378.225 434.559 378.324 434.725 378.435C434.895 378.541 435.098 378.64 435.336 378.734C435.573 378.823 435.858 378.867 436.189 378.867C436.727 378.867 437.143 378.736 437.436 378.473C437.733 378.21 437.881 377.847 437.881 377.385C437.881 377.126 437.82 376.916 437.697 376.755C437.574 376.589 437.41 376.451 437.207 376.341C437.007 376.231 436.778 376.137 436.519 376.061C436.261 375.985 435.998 375.904 435.73 375.819C435.463 375.73 435.2 375.628 434.941 375.514C434.683 375.395 434.451 375.242 434.248 375.055C434.048 374.865 433.887 374.631 433.764 374.355C433.641 374.075 433.579 373.728 433.579 373.312C433.579 372.981 433.643 372.661 433.77 372.351C433.902 372.041 434.091 371.768 434.337 371.53C434.587 371.288 434.895 371.095 435.259 370.951C435.624 370.807 436.04 370.735 436.507 370.735C437.033 370.735 437.514 370.817 437.951 370.983C438.393 371.148 438.772 371.384 439.09 371.689L438.728 372.402Z" fill="#566E88"/>
<path fill-rule="evenodd" clip-rule="evenodd" d="M410.544 243.348C409.685 244.074 409 245.049 409 246.25V262.25C409 263.451 409.685 264.426 410.544 265.152C411.408 265.882 412.585 266.483 413.93 266.963C416.345 267.825 419.517 268.374 423 268.481H424.748L424.75 268.48L426.25 268.45L426.251 268.451C429.438 268.293 432.33 267.763 434.57 266.963C435.915 266.483 437.092 265.882 437.956 265.152C438.815 264.426 439.5 263.451 439.5 262.25V246.25C439.5 245.049 438.815 244.074 437.956 243.348C437.092 242.618 435.915 242.017 434.57 241.537C431.869 240.573 428.22 240 424.25 240C420.28 240 416.631 240.573 413.93 241.537C412.585 242.017 411.408 242.618 410.544 243.348ZM412.157 245.259C411.599 245.73 411.5 246.07 411.5 246.25C411.5 246.43 411.599 246.77 412.157 247.241C412.709 247.708 413.582 248.184 414.771 248.609C417.137 249.454 420.488 250 424.25 250C428.012 250 431.363 249.454 433.729 248.609C434.918 248.184 435.791 247.708 436.343 247.241C436.901 246.77 437 246.43 437 246.25C437 246.07 436.901 245.73 436.343 245.259C435.791 244.792 434.918 244.316 433.729 243.891C431.363 243.046 428.012 242.5 424.25 242.5C420.488 242.5 417.137 243.046 414.771 243.891C413.582 244.316 412.709 244.792 412.157 245.259ZM424.25 266C428.012 266 431.363 265.454 433.729 264.609C434.918 264.184 435.791 263.708 436.343 263.241C436.901 262.77 437 262.43 437 262.25V257.835C436.294 258.266 435.469 258.642 434.57 258.963C431.869 259.927 428.22 260.5 424.25 260.5C420.28 260.5 416.631 259.927 413.93 258.963C413.031 258.642 412.206 258.266 411.5 257.835V262.25C411.5 262.43 411.599 262.77 412.157 263.241C412.709 263.708 413.582 264.184 414.771 264.609C417.137 265.454 420.488 266 424.25 266ZM437 249.835V254.25C437 254.43 436.901 254.77 436.343 255.241C435.791 255.708 434.918 256.184 433.729 256.609C431.363 257.454 428.012 258 424.25 258C420.488 258 417.137 257.454 414.771 256.609C413.582 256.184 412.709 255.708 412.157 255.241C411.599 254.77 411.5 254.43 411.5 254.25V249.835C412.206 250.266 413.031 250.642 413.93 250.963C416.631 251.927 420.28 252.5 424.25 252.5C428.22 252.5 431.869 251.927 434.57 250.963C435.469 250.642 436.294 250.266 437 249.835Z" fill="#465A71"/>
<rect x="427.25" y="253.25" width="21" height="21" rx="10.5" fill="white"/>
<path d="M442.901 263.325V263.325C442.901 264.73 442.259 266.062 441.148 266.962L439.402 268.376C438.706 268.94 438.186 269.681 437.899 270.517L437.575 271.455L437.253 270.516C436.966 269.681 436.446 268.939 435.75 268.375L434.004 266.961C432.891 266.06 432.25 264.729 432.25 263.323V263.323V263.35C432.249 260.123 435.001 258.25 437.575 258.25C440.149 258.25 442.901 260.123 442.901 263.351" stroke="#465A71" stroke-width="2" stroke-linecap="round" stroke-linejoin="round"/>
<path d="M438.013 262.777C438.254 263.011 438.254 263.392 438.013 263.626C437.772 263.86 437.38 263.86 437.139 263.626C436.898 263.392 436.898 263.011 437.139 262.777C437.38 262.543 437.77 262.543 438.013 262.777" stroke="#465A71" stroke-width="2" stroke-linecap="round" stroke-linejoin="round"/>
<path fill-rule="evenodd" clip-rule="evenodd" d="M388.544 325.348C387.685 326.074 387 327.049 387 328.25V344.25C387 345.451 387.685 346.426 388.544 347.152C389.408 347.882 390.585 348.483 391.93 348.963C394.345 349.825 397.517 350.374 401 350.481H402.748L402.75 350.48L404.25 350.45L404.251 350.451C407.438 350.293 410.33 349.763 412.57 348.963C413.915 348.483 415.092 347.882 415.956 347.152C416.815 346.426 417.5 345.451 417.5 344.25V328.25C417.5 327.049 416.815 326.074 415.956 325.348C415.092 324.618 413.915 324.017 412.57 323.537C409.869 322.573 406.22 322 402.25 322C398.28 322 394.631 322.573 391.93 323.537C390.585 324.017 389.408 324.618 388.544 325.348ZM390.157 327.259C389.599 327.73 389.5 328.07 389.5 328.25C389.5 328.43 389.599 328.77 390.157 329.241C390.709 329.708 391.582 330.184 392.771 330.609C395.137 331.454 398.488 332 402.25 332C406.012 332 409.363 331.454 411.729 330.609C412.918 330.184 413.791 329.708 414.343 329.241C414.901 328.77 415 328.43 415 328.25C415 328.07 414.901 327.73 414.343 327.259C413.791 326.792 412.918 326.316 411.729 325.891C409.363 325.046 406.012 324.5 402.25 324.5C398.488 324.5 395.137 325.046 392.771 325.891C391.582 326.316 390.709 326.792 390.157 327.259ZM402.25 348C406.012 348 409.363 347.454 411.729 346.609C412.918 346.184 413.791 345.708 414.343 345.241C414.901 344.77 415 344.43 415 344.25V339.835C414.294 340.266 413.469 340.642 412.57 340.963C409.869 341.927 406.22 342.5 402.25 342.5C398.28 342.5 394.631 341.927 391.93 340.963C391.031 340.642 390.206 340.266 389.5 339.835V344.25C389.5 344.43 389.599 344.77 390.157 345.241C390.709 345.708 391.582 346.184 392.771 346.609C395.137 347.454 398.488 348 402.25 348ZM415 331.835V336.25C415 336.43 414.901 336.77 414.343 337.241C413.791 337.708 412.918 338.184 411.729 338.609C409.363 339.454 406.012 340 402.25 340C398.488 340 395.137 339.454 392.771 338.609C391.582 338.184 390.709 337.708 390.157 337.241C389.599 336.77 389.5 336.43 389.5 336.25V331.835C390.206 332.266 391.031 332.642 391.93 332.963C394.631 333.927 398.28 334.5 402.25 334.5C406.22 334.5 409.869 333.927 412.57 332.963C413.469 332.642 414.294 332.266 415 331.835Z" fill="#465A71"/>
<rect x="405.25" y="335.25" width="21" height="21" rx="10.5" fill="white"/>
<path d="M420.901 345.325V345.325C420.901 346.73 420.259 348.062 419.148 348.962L417.402 350.376C416.706 350.94 416.186 351.681 415.899 352.517L415.575 353.455L415.253 352.516C414.966 351.681 414.446 350.939 413.75 350.375L412.004 348.961C410.891 348.06 410.25 346.729 410.25 345.323V345.323V345.35C410.249 342.123 413.001 340.25 415.575 340.25C418.149 340.25 420.901 342.123 420.901 345.351" stroke="#465A71" stroke-width="2" stroke-linecap="round" stroke-linejoin="round"/>
<path d="M416.013 344.777C416.254 345.011 416.254 345.392 416.013 345.626C415.772 345.86 415.38 345.86 415.139 345.626C414.898 345.392 414.898 345.011 415.139 344.777C415.38 344.543 415.77 344.543 416.013 344.777" stroke="#465A71" stroke-width="2" stroke-linecap="round" stroke-linejoin="round"/>
<path fill-rule="evenodd" clip-rule="evenodd" d="M340.544 161.348C339.685 162.074 339 163.049 339 164.25V180.25C339 181.451 339.685 182.426 340.544 183.152C341.408 183.882 342.585 184.483 343.93 184.963C346.345 185.825 349.517 186.374 353 186.481H354.748L354.75 186.48L356.25 186.45L356.251 186.451C359.438 186.293 362.33 185.763 364.57 184.963C365.915 184.483 367.092 183.882 367.956 183.152C368.815 182.426 369.5 181.451 369.5 180.25V164.25C369.5 163.049 368.815 162.074 367.956 161.348C367.092 160.618 365.915 160.017 364.57 159.537C361.869 158.573 358.22 158 354.25 158C350.28 158 346.631 158.573 343.93 159.537C342.585 160.017 341.408 160.618 340.544 161.348ZM342.157 163.259C341.599 163.73 341.5 164.07 341.5 164.25C341.5 164.43 341.599 164.77 342.157 165.241C342.709 165.708 343.582 166.184 344.771 166.609C347.137 167.454 350.488 168 354.25 168C358.012 168 361.363 167.454 363.729 166.609C364.918 166.184 365.791 165.708 366.343 165.241C366.901 164.77 367 164.43 367 164.25C367 164.07 366.901 163.73 366.343 163.259C365.791 162.792 364.918 162.316 363.729 161.891C361.363 161.046 358.012 160.5 354.25 160.5C350.488 160.5 347.137 161.046 344.771 161.891C343.582 162.316 342.709 162.792 342.157 163.259ZM354.25 184C358.012 184 361.363 183.454 363.729 182.609C364.918 182.184 365.791 181.708 366.343 181.241C366.901 180.77 367 180.43 367 180.25V175.835C366.294 176.266 365.469 176.642 364.57 176.963C361.869 177.927 358.22 178.5 354.25 178.5C350.28 178.5 346.631 177.927 343.93 176.963C343.031 176.642 342.206 176.266 341.5 175.835V180.25C341.5 180.43 341.599 180.77 342.157 181.241C342.709 181.708 343.582 182.184 344.771 182.609C347.137 183.454 350.488 184 354.25 184ZM367 167.835V172.25C367 172.43 366.901 172.77 366.343 173.241C365.791 173.708 364.918 174.184 363.729 174.609C361.363 175.454 358.012 176 354.25 176C350.488 176 347.137 175.454 344.771 174.609C343.582 174.184 342.709 173.708 342.157 173.241C341.599 172.77 341.5 172.43 341.5 172.25V167.835C342.206 168.266 343.031 168.642 343.93 168.963C346.631 169.927 350.28 170.5 354.25 170.5C358.22 170.5 361.869 169.927 364.57 168.963C365.469 168.642 366.294 168.266 367 167.835Z" fill="#465A71"/>
<rect x="357.25" y="171.25" width="21" height="21" rx="10.5" fill="white"/>
<path d="M372.901 181.325V181.325C372.901 182.73 372.259 184.062 371.148 184.962L369.402 186.376C368.706 186.94 368.186 187.681 367.899 188.517L367.575 189.455L367.253 188.516C366.966 187.681 366.446 186.939 365.75 186.375L364.004 184.961C362.891 184.06 362.25 182.729 362.25 181.323V181.323V181.35C362.249 178.123 365.001 176.25 367.575 176.25C370.149 176.25 372.901 178.123 372.901 181.351" stroke="#465A71" stroke-width="2" stroke-linecap="round" stroke-linejoin="round"/>
<path d="M368.013 180.777C368.254 181.011 368.254 181.392 368.013 181.626C367.772 181.86 367.38 181.86 367.139 181.626C366.898 181.392 366.898 181.011 367.139 180.777C367.38 180.543 367.77 180.543 368.013 180.777" stroke="#465A71" stroke-width="2" stroke-linecap="round" stroke-linejoin="round"/>
<path d="M95.9021 242.778C95.7927 242.747 95.6772 242.73 95.5579 242.73C95.4385 242.73 95.323 242.747 95.2136 242.778C95.0237 242.832 94.8321 242.933 94.6667 243.099C94.399 243.367 94.2979 243.703 94.2979 243.99C94.2979 244.277 94.399 244.613 94.6667 244.881C94.9344 245.149 95.2708 245.25 95.5579 245.25C95.8449 245.25 96.1813 245.149 96.449 244.881C96.7167 244.613 96.8179 244.277 96.8179 243.99C96.8179 243.703 96.7167 243.367 96.449 243.099C96.2836 242.933 96.092 242.832 95.9021 242.778Z" fill="#465A71"/>
<path d="M100.644 242.73C100.763 242.73 100.879 242.747 100.988 242.778C101.178 242.832 101.37 242.933 101.535 243.099C101.803 243.367 101.904 243.703 101.904 243.99C101.904 244.277 101.803 244.613 101.535 244.881C101.267 245.149 100.931 245.25 100.644 245.25C100.279 245.25 99.9944 245.096 99.8142 244.938C99.6103 244.76 99.3838 244.436 99.3838 243.99C99.3838 243.703 99.4849 243.367 99.7527 243.099C99.918 242.933 100.11 242.832 100.3 242.778C100.409 242.747 100.524 242.73 100.644 242.73Z" fill="#465A71"/>
<path d="M106.066 242.778C105.957 242.747 105.841 242.73 105.722 242.73C105.603 242.73 105.487 242.747 105.378 242.778C105.188 242.832 104.996 242.933 104.831 243.099C104.563 243.367 104.462 243.703 104.462 243.99C104.462 244.277 104.563 244.613 104.831 244.881C105.099 245.149 105.435 245.25 105.722 245.25C106.009 245.25 106.345 245.149 106.613 244.881C106.881 244.613 106.982 244.277 106.982 243.99C106.982 243.703 106.881 243.367 106.613 243.099C106.448 242.933 106.256 242.832 106.066 242.778Z" fill="#465A71"/>
<path fill-rule="evenodd" clip-rule="evenodd" d="M100.75 262C100.75 256.882 104.882 252.75 110 252.75C115.118 252.75 119.25 256.882 119.25 262C119.25 267.118 115.118 271.25 110 271.25C104.882 271.25 100.75 267.118 100.75 262ZM116.635 260.75C116.229 258.566 114.777 256.757 112.815 255.86C113.643 257.385 114.138 259.054 114.301 260.75H116.635ZM116.635 263.25H114.301C114.139 264.946 113.644 266.614 112.817 268.14C114.778 267.242 116.229 265.433 116.635 263.25ZM111.787 260.75C111.589 259.087 110.993 257.466 110 256.058C109.007 257.466 108.412 259.086 108.213 260.75H111.787ZM108.213 263.25H111.787C111.589 264.914 110.993 266.535 110 267.944C109.007 266.535 108.411 264.914 108.213 263.25ZM105.699 260.75C105.862 259.054 106.357 257.385 107.185 255.86C105.223 256.757 103.771 258.566 103.365 260.75H105.699ZM103.365 263.25H105.699C105.862 264.946 106.357 266.614 107.184 268.14C105.223 267.242 103.771 265.434 103.365 263.25Z" fill="#465A71"/>
<path fill-rule="evenodd" clip-rule="evenodd" d="M88.75 243C88.75 240.1 91.0996 237.75 94 237.75H126C128.9 237.75 131.25 240.1 131.25 243V271C131.25 273.9 128.9 276.25 126 276.25H94C91.0996 276.25 88.75 273.9 88.75 271V243ZM91.25 243C91.25 241.48 92.4804 240.25 94 240.25H126C127.52 240.25 128.75 241.48 128.75 243V247.75H91.25V243ZM128.75 250.25V271C128.75 272.52 127.52 273.75 126 273.75H94C92.4804 273.75 91.25 272.52 91.25 271V250.25H128.75Z" fill="#465A71"/>
<path d="M384 257H152" stroke="#E9EDF5" stroke-width="4" stroke-linecap="round" stroke-linejoin="round"/>
<path d="M365 339.5H283C271.954 339.5 263 330.546 263 319.5V277C263 265.954 254.046 257 243 257L152 257" stroke="#E9EDF5" stroke-width="4" stroke-linecap="round" stroke-linejoin="round"/>
<path d="M319 175.5H283C271.954 175.5 263 184.454 263 195.5V237C263 248.046 254.046 257 243 257L152 257" stroke="#E9EDF5" stroke-width="4" stroke-linecap="round" stroke-linejoin="round"/>
<g filter="url(#filter1_f_2_4227)">
<path fill-rule="evenodd" clip-rule="evenodd" d="M243 255C252.941 255 261 246.941 261 237V195.5C261 183.35 270.85 173.5 283 173.5H319C320.105 173.5 321 174.395 321 175.5C321 176.605 320.105 177.5 319 177.5H283C273.059 177.5 265 185.559 265 195.5V237C265 249.15 255.15 259 243 259H152C150.895 259 150 258.105 150 257C150 255.895 150.895 255 152 255L243 255Z" fill="url(#paint2_linear_2_4227)"/>
</g>
<path fill-rule="evenodd" clip-rule="evenodd" d="M243 255C252.941 255 261 246.941 261 237V195.5C261 183.35 270.85 173.5 283 173.5H319C320.105 173.5 321 174.395 321 175.5C321 176.605 320.105 177.5 319 177.5H283C273.059 177.5 265 185.559 265 195.5V237C265 249.15 255.15 259 243 259H152C150.895 259 150 258.105 150 257C150 255.895 150.895 255 152 255L243 255Z" fill="url(#paint3_linear_2_4227)"/>
<defs>
<filter id="filter0_d_2_4227" x="3" y="90" width="530" height="383" filterUnits="userSpaceOnUse" color-interpolation-filters="sRGB">
<feFlood flood-opacity="0" result="BackgroundImageFix"/>
<feColorMatrix in="SourceAlpha" type="matrix" values="0 0 0 0 0 0 0 0 0 0 0 0 0 0 0 0 0 0 127 0" result="hardAlpha"/>
<feOffset dy="14"/>
<feGaussianBlur stdDeviation="17"/>
<feComposite in2="hardAlpha" operator="out"/>
<feColorMatrix type="matrix" values="0 0 0 0 0 0 0 0 0 0.209091 0 0 0 0 0.383333 0 0 0 0.04 0"/>
<feBlend mode="normal" in2="BackgroundImageFix" result="effect1_dropShadow_2_4227"/>
<feBlend mode="normal" in="SourceGraphic" in2="effect1_dropShadow_2_4227" result="shape"/>
</filter>
<filter id="filter1_f_2_4227" x="138" y="161.5" width="195" height="109.5" filterUnits="userSpaceOnUse" color-interpolation-filters="sRGB">
<feFlood flood-opacity="0" result="BackgroundImageFix"/>
<feBlend mode="normal" in="SourceGraphic" in2="BackgroundImageFix" result="shape"/>
<feGaussianBlur stdDeviation="6" result="effect1_foregroundBlur_2_4227"/>
</filter>
<radialGradient id="paint0_radial_2_4227" cx="0" cy="0" r="1" gradientUnits="userSpaceOnUse" gradientTransform="translate(268 268) rotate(90) scale(230)">
<stop stop-color="#00A7A7" stop-opacity="0.16"/>
<stop offset="1" stop-color="#00A7A7" stop-opacity="0"/>
</radialGradient>
<linearGradient id="paint1_linear_2_4227" x1="38" y1="111" x2="538.265" y2="508.788" gradientUnits="userSpaceOnUse">
<stop stop-color="#CCE2F4"/>
<stop offset="1" stop-color="#DDECF8" stop-opacity="0"/>
</linearGradient>
<linearGradient id="paint2_linear_2_4227" x1="243" y1="173.496" x2="161.5" y2="173.496" gradientUnits="userSpaceOnUse">
<stop stop-color="#97EAEA" stop-opacity="0"/>
<stop offset="0.0664873" stop-color="#7DE8E8"/>
<stop offset="0.18785" stop-color="#00A7A7" stop-opacity="0.624242"/>
<stop offset="1" stop-color="#00A7A7" stop-opacity="0"/>
</linearGradient>
<linearGradient id="paint3_linear_2_4227" x1="242" y1="173.503" x2="153.5" y2="173.503" gradientUnits="userSpaceOnUse">
<stop stop-color="#97EAEA" stop-opacity="0"/>
<stop offset="0.0664873" stop-color="#7DE8E8"/>
<stop offset="0.18785" stop-color="#00A7A7" stop-opacity="0.624242"/>
<stop offset="1" stop-color="#00A7A7" stop-opacity="0"/>
</linearGradient>
</defs>
</svg>
