<svg width="536" height="536" viewBox="0 0 536 536" fill="none" xmlns="http://www.w3.org/2000/svg">
<rect width="536" height="536" fill="white"/>
<circle cx="268" cy="268" r="230" fill="url(#paint0_radial_2_4265)"/>
<line x1="268" y1="264" x2="268" y2="534" stroke="#00BABA" stroke-width="4" stroke-linecap="round" stroke-linejoin="round" stroke-dasharray="12.25 12.25"/>
<g filter="url(#filter0_d_2_4265)">
<rect x="105" y="58" width="326" height="419" rx="12" fill="white" shape-rendering="crispEdges"/>
<rect x="104.5" y="57.5" width="327" height="420" rx="12.5" stroke="url(#paint1_linear_2_4265)" shape-rendering="crispEdges"/>
</g>
<g filter="url(#filter1_d_2_4265)">
<rect x="120" y="213" width="297" height="76" rx="8" fill="white"/>
<rect x="119.5" y="212.5" width="298" height="77" rx="8.5" stroke="#E9EDF5"/>
</g>
<path d="M395 245L401 250.5L395 256" stroke="#00BABA" stroke-width="2" stroke-linecap="round" stroke-linejoin="round"/>
<rect x="200" y="259" width="74" height="10" rx="5" fill="#EDF2F7"/>
<path d="M206.517 238.719C206.461 238.817 206.4 238.889 206.335 238.936C206.274 238.978 206.197 238.999 206.104 238.999C206.006 238.999 205.899 238.964 205.782 238.894C205.67 238.819 205.535 238.738 205.376 238.649C205.217 238.56 205.031 238.481 204.816 238.411C204.606 238.336 204.356 238.299 204.067 238.299C203.806 238.299 203.577 238.332 203.381 238.397C203.185 238.458 203.019 238.544 202.884 238.656C202.753 238.768 202.655 238.903 202.59 239.062C202.525 239.216 202.492 239.386 202.492 239.573C202.492 239.811 202.557 240.009 202.688 240.168C202.823 240.327 203.001 240.462 203.22 240.574C203.439 240.686 203.689 240.786 203.969 240.875C204.249 240.964 204.536 241.059 204.83 241.162C205.124 241.26 205.411 241.377 205.691 241.512C205.971 241.643 206.221 241.811 206.44 242.016C206.659 242.217 206.834 242.464 206.965 242.758C207.1 243.052 207.168 243.409 207.168 243.829C207.168 244.286 207.089 244.716 206.93 245.117C206.776 245.514 206.547 245.861 206.244 246.16C205.945 246.454 205.579 246.687 205.145 246.86C204.711 247.028 204.214 247.112 203.654 247.112C203.332 247.112 203.015 247.079 202.702 247.014C202.389 246.953 202.088 246.865 201.799 246.748C201.514 246.631 201.246 246.491 200.994 246.328C200.742 246.165 200.518 245.983 200.322 245.782L200.875 244.879C200.922 244.814 200.982 244.76 201.057 244.718C201.132 244.671 201.211 244.648 201.295 244.648C201.412 244.648 201.538 244.697 201.673 244.795C201.808 244.888 201.969 244.993 202.156 245.11C202.343 245.227 202.56 245.334 202.807 245.432C203.059 245.525 203.36 245.572 203.71 245.572C204.247 245.572 204.662 245.446 204.956 245.194C205.25 244.937 205.397 244.571 205.397 244.095C205.397 243.829 205.329 243.612 205.194 243.444C205.063 243.276 204.888 243.136 204.669 243.024C204.45 242.907 204.2 242.809 203.92 242.73C203.64 242.651 203.355 242.564 203.066 242.471C202.777 242.378 202.492 242.266 202.212 242.135C201.932 242.004 201.682 241.834 201.463 241.624C201.244 241.414 201.066 241.153 200.931 240.84C200.8 240.523 200.735 240.133 200.735 239.671C200.735 239.302 200.807 238.943 200.952 238.593C201.101 238.243 201.316 237.933 201.596 237.662C201.876 237.391 202.221 237.174 202.632 237.011C203.043 236.848 203.514 236.766 204.046 236.766C204.643 236.766 205.194 236.859 205.698 237.046C206.202 237.233 206.631 237.494 206.986 237.83L206.517 238.719ZM212.236 243.934C211.737 243.957 211.317 244.002 210.976 244.067C210.635 244.128 210.362 244.207 210.157 244.305C209.952 244.403 209.805 244.517 209.716 244.648C209.627 244.779 209.583 244.921 209.583 245.075C209.583 245.378 209.672 245.595 209.849 245.726C210.031 245.857 210.267 245.922 210.556 245.922C210.911 245.922 211.216 245.859 211.473 245.733C211.734 245.602 211.989 245.406 212.236 245.145V243.934ZM208.274 240.819C209.1 240.063 210.094 239.685 211.256 239.685C211.676 239.685 212.052 239.755 212.383 239.895C212.714 240.03 212.994 240.222 213.223 240.469C213.452 240.712 213.624 241.003 213.741 241.344C213.862 241.685 213.923 242.058 213.923 242.464V247H213.139C212.976 247 212.85 246.977 212.761 246.93C212.672 246.879 212.602 246.778 212.551 246.629L212.397 246.111C212.215 246.274 212.038 246.419 211.865 246.545C211.692 246.666 211.513 246.769 211.326 246.853C211.139 246.937 210.939 247 210.724 247.042C210.514 247.089 210.281 247.112 210.024 247.112C209.721 247.112 209.441 247.072 209.184 246.993C208.927 246.909 208.706 246.785 208.519 246.622C208.332 246.459 208.188 246.256 208.085 246.013C207.982 245.77 207.931 245.488 207.931 245.166C207.931 244.984 207.961 244.804 208.022 244.627C208.083 244.445 208.181 244.272 208.316 244.109C208.456 243.946 208.636 243.792 208.855 243.647C209.074 243.502 209.343 243.376 209.66 243.269C209.982 243.162 210.355 243.075 210.78 243.01C211.205 242.94 211.69 242.898 212.236 242.884V242.464C212.236 241.983 212.133 241.629 211.928 241.4C211.723 241.167 211.426 241.05 211.039 241.05C210.759 241.05 210.526 241.083 210.339 241.148C210.157 241.213 209.996 241.288 209.856 241.372C209.716 241.451 209.588 241.524 209.471 241.589C209.359 241.654 209.233 241.687 209.093 241.687C208.972 241.687 208.869 241.657 208.785 241.596C208.701 241.531 208.633 241.456 208.582 241.372L208.274 240.819ZM217.168 240.7C217.313 240.555 217.465 240.422 217.623 240.301C217.787 240.175 217.957 240.07 218.134 239.986C218.316 239.897 218.51 239.83 218.715 239.783C218.921 239.732 219.145 239.706 219.387 239.706C219.779 239.706 220.127 239.774 220.43 239.909C220.734 240.04 220.986 240.226 221.186 240.469C221.392 240.707 221.546 240.994 221.648 241.33C221.756 241.661 221.809 242.028 221.809 242.429V247H220.08V242.429C220.08 241.99 219.98 241.652 219.779 241.414C219.579 241.171 219.273 241.05 218.862 241.05C218.564 241.05 218.284 241.118 218.022 241.253C217.761 241.388 217.514 241.573 217.28 241.806V247H215.551V239.818H216.608C216.832 239.818 216.979 239.923 217.049 240.133L217.168 240.7ZM227.962 241.652C227.766 241.414 227.551 241.246 227.318 241.148C227.089 241.05 226.842 241.001 226.576 241.001C226.314 241.001 226.079 241.05 225.869 241.148C225.659 241.246 225.479 241.395 225.33 241.596C225.18 241.792 225.066 242.044 224.987 242.352C224.907 242.655 224.868 243.015 224.868 243.43C224.868 243.85 224.9 244.207 224.966 244.501C225.036 244.79 225.134 245.028 225.26 245.215C225.386 245.397 225.54 245.53 225.722 245.614C225.904 245.693 226.107 245.733 226.331 245.733C226.69 245.733 226.996 245.658 227.248 245.509C227.5 245.36 227.738 245.147 227.962 244.872V241.652ZM229.691 236.598V247H228.634C228.405 247 228.26 246.895 228.2 246.685L228.053 245.992C227.763 246.323 227.43 246.592 227.052 246.797C226.678 247.002 226.242 247.105 225.743 247.105C225.351 247.105 224.991 247.023 224.665 246.86C224.338 246.697 224.056 246.461 223.818 246.153C223.584 245.84 223.402 245.455 223.272 244.998C223.146 244.541 223.083 244.018 223.083 243.43C223.083 242.898 223.155 242.403 223.3 241.946C223.444 241.489 223.652 241.092 223.923 240.756C224.193 240.42 224.518 240.159 224.896 239.972C225.274 239.781 225.698 239.685 226.17 239.685C226.571 239.685 226.914 239.748 227.199 239.874C227.483 240 227.738 240.17 227.962 240.385V236.598H229.691ZM233.126 245.138C233.322 245.376 233.534 245.544 233.763 245.642C233.996 245.74 234.241 245.789 234.498 245.789C234.764 245.789 235.002 245.742 235.212 245.649C235.427 245.551 235.609 245.402 235.758 245.201C235.907 244.996 236.022 244.737 236.101 244.424C236.18 244.107 236.22 243.729 236.22 243.29C236.22 242.501 236.089 241.932 235.828 241.582C235.567 241.227 235.191 241.05 234.701 241.05C234.37 241.05 234.08 241.127 233.833 241.281C233.586 241.43 233.35 241.643 233.126 241.918V245.138ZM233.126 240.7C233.415 240.397 233.735 240.156 234.085 239.979C234.44 239.797 234.843 239.706 235.296 239.706C235.711 239.706 236.085 239.788 236.416 239.951C236.752 240.114 237.037 240.35 237.27 240.658C237.508 240.961 237.69 241.33 237.816 241.764C237.942 242.198 238.005 242.686 238.005 243.227C238.005 243.81 237.933 244.34 237.788 244.816C237.643 245.292 237.436 245.7 237.165 246.041C236.899 246.377 236.577 246.638 236.199 246.825C235.821 247.012 235.401 247.105 234.939 247.105C234.715 247.105 234.512 247.082 234.33 247.035C234.148 246.993 233.98 246.932 233.826 246.853C233.672 246.774 233.53 246.678 233.399 246.566C233.273 246.449 233.152 246.321 233.035 246.181L232.958 246.664C232.93 246.785 232.881 246.872 232.811 246.923C232.746 246.974 232.655 247 232.538 247H231.397V236.598H233.126V240.7ZM242.518 239.706C243.05 239.706 243.533 239.792 243.967 239.965C244.406 240.138 244.779 240.383 245.087 240.7C245.4 241.017 245.64 241.405 245.808 241.862C245.976 242.319 246.06 242.83 246.06 243.395C246.06 243.964 245.976 244.478 245.808 244.935C245.64 245.392 245.4 245.782 245.087 246.104C244.779 246.426 244.406 246.673 243.967 246.846C243.533 247.019 243.05 247.105 242.518 247.105C241.982 247.105 241.494 247.019 241.055 246.846C240.617 246.673 240.241 246.426 239.928 246.104C239.62 245.782 239.38 245.392 239.207 244.935C239.039 244.478 238.955 243.964 238.955 243.395C238.955 242.83 239.039 242.319 239.207 241.862C239.38 241.405 239.62 241.017 239.928 240.7C240.241 240.383 240.617 240.138 241.055 239.965C241.494 239.792 241.982 239.706 242.518 239.706ZM242.518 245.775C243.116 245.775 243.557 245.574 243.841 245.173C244.131 244.772 244.275 244.184 244.275 243.409C244.275 242.634 244.131 242.044 243.841 241.638C243.557 241.232 243.116 241.029 242.518 241.029C241.912 241.029 241.461 241.234 241.167 241.645C240.878 242.051 240.733 242.639 240.733 243.409C240.733 244.179 240.878 244.767 241.167 245.173C241.461 245.574 241.912 245.775 242.518 245.775ZM253.463 247H251.797C251.671 247 251.569 246.967 251.489 246.902C251.415 246.837 251.352 246.762 251.3 246.678L249.781 244.179C249.758 244.258 249.73 244.333 249.697 244.403C249.669 244.473 249.637 244.538 249.599 244.599L248.255 246.678C248.204 246.757 248.141 246.832 248.066 246.902C247.992 246.967 247.898 247 247.786 247H246.239L248.703 243.297L246.337 239.818H248.003C248.129 239.818 248.223 239.837 248.283 239.874C248.344 239.907 248.398 239.963 248.444 240.042L249.949 242.436C250.001 242.277 250.073 242.121 250.166 241.967L251.377 240.077C251.48 239.904 251.613 239.818 251.776 239.818H253.365L251.006 243.22L253.463 247Z" fill="#253343"/>
<rect x="132" y="225" width="52" height="52" rx="6" fill="#E6F8F8"/>
<path d="M147.699 245.68L158.001 251.642L168.232 245.715" fill="#BFEEEE"/>
<path d="M155.586 239.893L149.356 243.347C147.944 244.128 146.789 246.088 146.789 247.698V254.29C146.789 255.9 147.944 257.86 149.356 258.642L155.586 262.107C156.916 262.842 159.097 262.842 160.427 262.107L166.657 258.642C168.069 257.86 169.224 255.9 169.224 254.29V247.698C169.224 246.088 168.069 244.128 166.657 243.347L160.427 239.882C159.086 239.147 156.916 239.147 155.586 239.893Z" fill="#BFEEEE"/>
<path d="M147.699 245.68L158.001 251.642L168.232 245.715M158.001 262.212V251.63M155.586 239.893L149.356 243.347C147.944 244.128 146.789 246.088 146.789 247.698V254.29C146.789 255.9 147.944 257.86 149.356 258.642L155.586 262.107C156.916 262.842 159.097 262.842 160.427 262.107L166.657 258.642C168.069 257.86 169.224 255.9 169.224 254.29V247.698C169.224 246.088 168.069 244.128 166.657 243.347L160.427 239.882C159.086 239.147 156.916 239.147 155.586 239.893Z" stroke="#008C8C" stroke-width="1.75" stroke-linecap="round" stroke-linejoin="round"/>
<g filter="url(#filter2_d_2_4265)">
<rect x="120" y="301" width="297" height="76" rx="8" fill="white"/>
<rect x="119.5" y="300.5" width="298" height="77" rx="8.5" stroke="#E9EDF5"/>
</g>
<path d="M395 333L401 338.5L395 344" stroke="#D1DBE8" stroke-width="2" stroke-linecap="round" stroke-linejoin="round"/>
<rect x="200" y="347" width="74" height="10" rx="5" fill="#EDF2F7"/>
<path d="M209.471 329.925V334.02C208.958 334.398 208.409 334.676 207.826 334.853C207.247 335.026 206.627 335.112 205.964 335.112C205.138 335.112 204.389 334.984 203.717 334.727C203.05 334.47 202.478 334.113 202.002 333.656C201.531 333.199 201.167 332.653 200.91 332.018C200.653 331.383 200.525 330.69 200.525 329.939C200.525 329.178 200.649 328.481 200.896 327.846C201.143 327.211 201.493 326.665 201.946 326.208C202.403 325.751 202.956 325.396 203.605 325.144C204.254 324.892 204.982 324.766 205.789 324.766C206.2 324.766 206.582 324.799 206.937 324.864C207.296 324.929 207.628 325.02 207.931 325.137C208.239 325.249 208.519 325.387 208.771 325.55C209.023 325.713 209.254 325.893 209.464 326.089L208.925 326.943C208.841 327.078 208.731 327.162 208.596 327.195C208.461 327.223 208.314 327.188 208.155 327.09C208.001 327.001 207.847 326.913 207.693 326.824C207.539 326.735 207.366 326.658 207.175 326.593C206.988 326.528 206.776 326.474 206.538 326.432C206.305 326.39 206.034 326.369 205.726 326.369C205.227 326.369 204.774 326.453 204.368 326.621C203.967 326.789 203.624 327.029 203.339 327.342C203.054 327.655 202.835 328.03 202.681 328.469C202.527 328.908 202.45 329.398 202.45 329.939C202.45 330.518 202.532 331.036 202.695 331.493C202.863 331.946 203.096 332.331 203.395 332.648C203.698 332.961 204.062 333.201 204.487 333.369C204.912 333.532 205.385 333.614 205.908 333.614C206.281 333.614 206.615 333.574 206.909 333.495C207.203 333.416 207.49 333.308 207.77 333.173V331.339H206.496C206.375 331.339 206.279 331.306 206.209 331.241C206.144 331.171 206.111 331.087 206.111 330.989V329.925H209.471ZM215.557 330.583C215.557 330.359 215.525 330.149 215.459 329.953C215.399 329.752 215.305 329.577 215.179 329.428C215.053 329.279 214.892 329.162 214.696 329.078C214.505 328.989 214.281 328.945 214.024 328.945C213.525 328.945 213.131 329.087 212.841 329.372C212.557 329.657 212.375 330.06 212.295 330.583H215.557ZM212.26 331.626C212.288 331.995 212.354 332.314 212.456 332.585C212.559 332.851 212.694 333.073 212.862 333.25C213.03 333.423 213.229 333.553 213.457 333.642C213.691 333.726 213.947 333.768 214.227 333.768C214.507 333.768 214.748 333.735 214.948 333.67C215.154 333.605 215.331 333.532 215.48 333.453C215.634 333.374 215.767 333.301 215.879 333.236C215.996 333.171 216.108 333.138 216.215 333.138C216.36 333.138 216.467 333.192 216.537 333.299L217.034 333.929C216.843 334.153 216.628 334.342 216.39 334.496C216.152 334.645 215.903 334.767 215.641 334.86C215.385 334.949 215.121 335.012 214.85 335.049C214.584 335.086 214.325 335.105 214.073 335.105C213.574 335.105 213.11 335.023 212.68 334.86C212.251 334.692 211.878 334.447 211.56 334.125C211.243 333.798 210.993 333.397 210.811 332.921C210.629 332.44 210.538 331.885 210.538 331.255C210.538 330.765 210.618 330.305 210.776 329.876C210.935 329.442 211.161 329.066 211.455 328.749C211.754 328.427 212.116 328.173 212.54 327.986C212.97 327.799 213.453 327.706 213.989 327.706C214.442 327.706 214.86 327.778 215.242 327.923C215.625 328.068 215.954 328.28 216.229 328.56C216.505 328.835 216.719 329.176 216.873 329.582C217.032 329.983 217.111 330.443 217.111 330.961C217.111 331.222 217.083 331.4 217.027 331.493C216.971 331.582 216.864 331.626 216.705 331.626H212.26ZM220.026 328.7C220.17 328.555 220.322 328.422 220.481 328.301C220.644 328.175 220.814 328.07 220.992 327.986C221.174 327.897 221.367 327.83 221.573 327.783C221.778 327.732 222.002 327.706 222.245 327.706C222.637 327.706 222.984 327.774 223.288 327.909C223.591 328.04 223.843 328.226 224.044 328.469C224.249 328.707 224.403 328.994 224.506 329.33C224.613 329.661 224.667 330.028 224.667 330.429V335H222.938V330.429C222.938 329.99 222.837 329.652 222.637 329.414C222.436 329.171 222.13 329.05 221.72 329.05C221.421 329.05 221.141 329.118 220.88 329.253C220.618 329.388 220.371 329.573 220.138 329.806V335H218.409V327.818H219.466C219.69 327.818 219.837 327.923 219.907 328.133L220.026 328.7ZM230.938 330.583C230.938 330.359 230.905 330.149 230.84 329.953C230.779 329.752 230.686 329.577 230.56 329.428C230.434 329.279 230.273 329.162 230.077 329.078C229.886 328.989 229.662 328.945 229.405 328.945C228.906 328.945 228.511 329.087 228.222 329.372C227.937 329.657 227.755 330.06 227.676 330.583H230.938ZM227.641 331.626C227.669 331.995 227.734 332.314 227.837 332.585C227.94 332.851 228.075 333.073 228.243 333.25C228.411 333.423 228.609 333.553 228.838 333.642C229.071 333.726 229.328 333.768 229.608 333.768C229.888 333.768 230.128 333.735 230.329 333.67C230.534 333.605 230.712 333.532 230.861 333.453C231.015 333.374 231.148 333.301 231.26 333.236C231.377 333.171 231.489 333.138 231.596 333.138C231.741 333.138 231.848 333.192 231.918 333.299L232.415 333.929C232.224 334.153 232.009 334.342 231.771 334.496C231.533 334.645 231.283 334.767 231.022 334.86C230.765 334.949 230.502 335.012 230.231 335.049C229.965 335.086 229.706 335.105 229.454 335.105C228.955 335.105 228.49 335.023 228.061 334.86C227.632 334.692 227.258 334.447 226.941 334.125C226.624 333.798 226.374 333.397 226.192 332.921C226.01 332.44 225.919 331.885 225.919 331.255C225.919 330.765 225.998 330.305 226.157 329.876C226.316 329.442 226.542 329.066 226.836 328.749C227.135 328.427 227.496 328.173 227.921 327.986C228.35 327.799 228.833 327.706 229.37 327.706C229.823 327.706 230.24 327.778 230.623 327.923C231.006 328.068 231.335 328.28 231.61 328.56C231.885 328.835 232.1 329.176 232.254 329.582C232.413 329.983 232.492 330.443 232.492 330.961C232.492 331.222 232.464 331.4 232.408 331.493C232.352 331.582 232.245 331.626 232.086 331.626H227.641ZM235.421 329.064C235.645 328.635 235.911 328.299 236.219 328.056C236.527 327.809 236.891 327.685 237.311 327.685C237.642 327.685 237.908 327.757 238.109 327.902L237.997 329.197C237.973 329.281 237.938 329.342 237.892 329.379C237.85 329.412 237.791 329.428 237.717 329.428C237.647 329.428 237.542 329.416 237.402 329.393C237.266 329.37 237.133 329.358 237.003 329.358C236.811 329.358 236.641 329.386 236.492 329.442C236.342 329.498 236.207 329.58 236.086 329.687C235.969 329.79 235.864 329.916 235.771 330.065C235.682 330.214 235.598 330.385 235.519 330.576V335H233.79V327.818H234.805C234.982 327.818 235.106 327.851 235.176 327.916C235.246 327.977 235.292 328.089 235.316 328.252L235.421 329.064ZM242.711 331.934C242.211 331.957 241.791 332.002 241.451 332.067C241.11 332.128 240.837 332.207 240.632 332.305C240.426 332.403 240.279 332.517 240.191 332.648C240.102 332.779 240.058 332.921 240.058 333.075C240.058 333.378 240.146 333.595 240.324 333.726C240.506 333.857 240.741 333.922 241.031 333.922C241.385 333.922 241.691 333.859 241.948 333.733C242.209 333.602 242.463 333.406 242.711 333.145V331.934ZM238.749 328.819C239.575 328.063 240.569 327.685 241.731 327.685C242.151 327.685 242.526 327.755 242.858 327.895C243.189 328.03 243.469 328.222 243.698 328.469C243.926 328.712 244.099 329.003 244.216 329.344C244.337 329.685 244.398 330.058 244.398 330.464V335H243.614C243.45 335 243.324 334.977 243.236 334.93C243.147 334.879 243.077 334.778 243.026 334.629L242.872 334.111C242.69 334.274 242.512 334.419 242.34 334.545C242.167 334.666 241.987 334.769 241.801 334.853C241.614 334.937 241.413 335 241.199 335.042C240.989 335.089 240.755 335.112 240.499 335.112C240.195 335.112 239.915 335.072 239.659 334.993C239.402 334.909 239.18 334.785 238.994 334.622C238.807 334.459 238.662 334.256 238.56 334.013C238.457 333.77 238.406 333.488 238.406 333.166C238.406 332.984 238.436 332.804 238.497 332.627C238.557 332.445 238.655 332.272 238.791 332.109C238.931 331.946 239.11 331.792 239.33 331.647C239.549 331.502 239.817 331.376 240.135 331.269C240.457 331.162 240.83 331.075 241.255 331.01C241.679 330.94 242.165 330.898 242.711 330.884V330.464C242.711 329.983 242.608 329.629 242.403 329.4C242.197 329.167 241.901 329.05 241.514 329.05C241.234 329.05 241 329.083 240.814 329.148C240.632 329.213 240.471 329.288 240.331 329.372C240.191 329.451 240.062 329.524 239.946 329.589C239.834 329.654 239.708 329.687 239.568 329.687C239.446 329.687 239.344 329.657 239.26 329.596C239.176 329.531 239.108 329.456 239.057 329.372L238.749 328.819ZM247.776 324.598V335H246.047V324.598H247.776Z" fill="#253343"/>
<rect x="132" y="313" width="52" height="52" rx="6" fill="#F5F7FA"/>
<path d="M156.571 333.091C157.428 331.636 159.572 331.636 160.429 333.091L166.698 343.727C167.556 345.182 166.484 347 164.769 347H152.231C150.516 347 149.444 345.182 150.302 343.727L156.571 333.091Z" fill="#E9EDF5" stroke="#7A90AA" stroke-width="1.75" stroke-linecap="round" stroke-linejoin="round"/>
<g filter="url(#filter3_d_2_4265)">
<rect x="120" y="389" width="297" height="76" rx="8" fill="white"/>
<rect x="119.5" y="388.5" width="298" height="77" rx="8.5" stroke="#E9EDF5"/>
</g>
<path d="M395 421L401 426.5L395 432" stroke="#D1DBE8" stroke-width="2" stroke-linecap="round" stroke-linejoin="round"/>
<rect x="200" y="435" width="74" height="10" rx="5" fill="#EDF2F7"/>
<path d="M207.056 421.446V423H201.127V412.878H203.01V421.446H207.056ZM210.936 415.706C211.468 415.706 211.951 415.792 212.385 415.965C212.824 416.138 213.197 416.383 213.505 416.7C213.818 417.017 214.058 417.405 214.226 417.862C214.394 418.319 214.478 418.83 214.478 419.395C214.478 419.964 214.394 420.478 214.226 420.935C214.058 421.392 213.818 421.782 213.505 422.104C213.197 422.426 212.824 422.673 212.385 422.846C211.951 423.019 211.468 423.105 210.936 423.105C210.4 423.105 209.912 423.019 209.473 422.846C209.035 422.673 208.659 422.426 208.346 422.104C208.038 421.782 207.798 421.392 207.625 420.935C207.457 420.478 207.373 419.964 207.373 419.395C207.373 418.83 207.457 418.319 207.625 417.862C207.798 417.405 208.038 417.017 208.346 416.7C208.659 416.383 209.035 416.138 209.473 415.965C209.912 415.792 210.4 415.706 210.936 415.706ZM210.936 421.775C211.534 421.775 211.975 421.574 212.259 421.173C212.549 420.772 212.693 420.184 212.693 419.409C212.693 418.634 212.549 418.044 212.259 417.638C211.975 417.232 211.534 417.029 210.936 417.029C210.33 417.029 209.879 417.234 209.585 417.645C209.296 418.051 209.151 418.639 209.151 419.409C209.151 420.179 209.296 420.767 209.585 421.173C209.879 421.574 210.33 421.775 210.936 421.775ZM220.942 417.337C220.891 417.402 220.84 417.454 220.788 417.491C220.742 417.528 220.672 417.547 220.578 417.547C220.49 417.547 220.403 417.521 220.319 417.47C220.235 417.414 220.135 417.353 220.018 417.288C219.902 417.218 219.762 417.157 219.598 417.106C219.44 417.05 219.241 417.022 219.003 417.022C218.7 417.022 218.434 417.078 218.205 417.19C217.977 417.297 217.785 417.454 217.631 417.659C217.482 417.864 217.37 418.114 217.295 418.408C217.221 418.697 217.183 419.026 217.183 419.395C217.183 419.778 217.223 420.118 217.302 420.417C217.386 420.716 217.505 420.968 217.659 421.173C217.813 421.374 218 421.528 218.219 421.635C218.439 421.738 218.686 421.789 218.961 421.789C219.237 421.789 219.458 421.756 219.626 421.691C219.799 421.621 219.944 421.546 220.06 421.467C220.177 421.383 220.277 421.308 220.361 421.243C220.45 421.173 220.548 421.138 220.655 421.138C220.795 421.138 220.9 421.192 220.97 421.299L221.467 421.929C221.276 422.153 221.068 422.342 220.844 422.496C220.62 422.645 220.387 422.767 220.144 422.86C219.906 422.949 219.659 423.012 219.402 423.049C219.15 423.086 218.898 423.105 218.646 423.105C218.203 423.105 217.785 423.023 217.393 422.86C217.001 422.692 216.658 422.449 216.364 422.132C216.07 421.815 215.837 421.427 215.664 420.97C215.496 420.508 215.412 419.983 215.412 419.395C215.412 418.868 215.487 418.38 215.636 417.932C215.79 417.479 216.014 417.09 216.308 416.763C216.602 416.432 216.966 416.173 217.4 415.986C217.834 415.799 218.334 415.706 218.898 415.706C219.435 415.706 219.904 415.792 220.305 415.965C220.711 416.138 221.075 416.385 221.397 416.707L220.942 417.337ZM226.345 419.934C225.846 419.957 225.426 420.002 225.085 420.067C224.745 420.128 224.472 420.207 224.266 420.305C224.061 420.403 223.914 420.517 223.825 420.648C223.737 420.779 223.692 420.921 223.692 421.075C223.692 421.378 223.781 421.595 223.958 421.726C224.14 421.857 224.376 421.922 224.665 421.922C225.02 421.922 225.326 421.859 225.582 421.733C225.844 421.602 226.098 421.406 226.345 421.145V419.934ZM222.383 416.819C223.209 416.063 224.203 415.685 225.365 415.685C225.785 415.685 226.161 415.755 226.492 415.895C226.824 416.03 227.104 416.222 227.332 416.469C227.561 416.712 227.734 417.003 227.85 417.344C227.972 417.685 228.032 418.058 228.032 418.464V423H227.248C227.085 423 226.959 422.977 226.87 422.93C226.782 422.879 226.712 422.778 226.66 422.629L226.506 422.111C226.324 422.274 226.147 422.419 225.974 422.545C225.802 422.666 225.622 422.769 225.435 422.853C225.249 422.937 225.048 423 224.833 423.042C224.623 423.089 224.39 423.112 224.133 423.112C223.83 423.112 223.55 423.072 223.293 422.993C223.037 422.909 222.815 422.785 222.628 422.622C222.442 422.459 222.297 422.256 222.194 422.013C222.092 421.77 222.04 421.488 222.04 421.166C222.04 420.984 222.071 420.804 222.131 420.627C222.192 420.445 222.29 420.272 222.425 420.109C222.565 419.946 222.745 419.792 222.964 419.647C223.184 419.502 223.452 419.376 223.769 419.269C224.091 419.162 224.465 419.075 224.889 419.01C225.314 418.94 225.799 418.898 226.345 418.884V418.464C226.345 417.983 226.243 417.629 226.037 417.4C225.832 417.167 225.536 417.05 225.148 417.05C224.868 417.05 224.635 417.083 224.448 417.148C224.266 417.213 224.105 417.288 223.965 417.372C223.825 417.451 223.697 417.524 223.58 417.589C223.468 417.654 223.342 417.687 223.202 417.687C223.081 417.687 222.978 417.657 222.894 417.596C222.81 417.531 222.743 417.456 222.691 417.372L222.383 416.819ZM231.411 412.598V423H229.682V412.598H231.411ZM242.201 414.719C242.145 414.817 242.084 414.889 242.019 414.936C241.958 414.978 241.881 414.999 241.788 414.999C241.69 414.999 241.582 414.964 241.466 414.894C241.354 414.819 241.218 414.738 241.06 414.649C240.901 414.56 240.714 414.481 240.5 414.411C240.29 414.336 240.04 414.299 239.751 414.299C239.489 414.299 239.261 414.332 239.065 414.397C238.869 414.458 238.703 414.544 238.568 414.656C238.437 414.768 238.339 414.903 238.274 415.062C238.208 415.216 238.176 415.386 238.176 415.573C238.176 415.811 238.241 416.009 238.372 416.168C238.507 416.327 238.684 416.462 238.904 416.574C239.123 416.686 239.373 416.786 239.653 416.875C239.933 416.964 240.22 417.059 240.514 417.162C240.808 417.26 241.095 417.377 241.375 417.512C241.655 417.643 241.904 417.811 242.124 418.016C242.343 418.217 242.518 418.464 242.649 418.758C242.784 419.052 242.852 419.409 242.852 419.829C242.852 420.286 242.772 420.716 242.614 421.117C242.46 421.514 242.231 421.861 241.928 422.16C241.629 422.454 241.263 422.687 240.829 422.86C240.395 423.028 239.898 423.112 239.338 423.112C239.016 423.112 238.698 423.079 238.386 423.014C238.073 422.953 237.772 422.865 237.483 422.748C237.198 422.631 236.93 422.491 236.678 422.328C236.426 422.165 236.202 421.983 236.006 421.782L236.559 420.879C236.605 420.814 236.666 420.76 236.741 420.718C236.815 420.671 236.895 420.648 236.979 420.648C237.095 420.648 237.221 420.697 237.357 420.795C237.492 420.888 237.653 420.993 237.84 421.11C238.026 421.227 238.243 421.334 238.491 421.432C238.743 421.525 239.044 421.572 239.394 421.572C239.93 421.572 240.346 421.446 240.64 421.194C240.934 420.937 241.081 420.571 241.081 420.095C241.081 419.829 241.013 419.612 240.878 419.444C240.747 419.276 240.572 419.136 240.353 419.024C240.133 418.907 239.884 418.809 239.604 418.73C239.324 418.651 239.039 418.564 238.75 418.471C238.46 418.378 238.176 418.266 237.896 418.135C237.616 418.004 237.366 417.834 237.147 417.624C236.927 417.414 236.75 417.153 236.615 416.84C236.484 416.523 236.419 416.133 236.419 415.671C236.419 415.302 236.491 414.943 236.636 414.593C236.785 414.243 237 413.933 237.28 413.662C237.56 413.391 237.905 413.174 238.316 413.011C238.726 412.848 239.198 412.766 239.73 412.766C240.327 412.766 240.878 412.859 241.382 413.046C241.886 413.233 242.315 413.494 242.67 413.83L242.201 414.719ZM246.301 423.112C245.675 423.112 245.195 422.937 244.859 422.587C244.527 422.232 244.362 421.745 244.362 421.124V417.113H243.627C243.533 417.113 243.454 417.083 243.389 417.022C243.323 416.961 243.291 416.87 243.291 416.749V416.063L244.446 415.874L244.81 413.914C244.833 413.821 244.877 413.748 244.943 413.697C245.008 413.646 245.092 413.62 245.195 413.62H246.091V415.881H248.009V417.113H246.091V421.005C246.091 421.229 246.144 421.404 246.252 421.53C246.364 421.656 246.515 421.719 246.707 421.719C246.814 421.719 246.903 421.707 246.973 421.684C247.047 421.656 247.11 421.628 247.162 421.6C247.218 421.572 247.267 421.546 247.309 421.523C247.351 421.495 247.393 421.481 247.435 421.481C247.486 421.481 247.528 421.495 247.561 421.523C247.593 421.546 247.628 421.584 247.666 421.635L248.184 422.475C247.932 422.685 247.642 422.844 247.316 422.951C246.989 423.058 246.651 423.112 246.301 423.112ZM252.239 415.706C252.771 415.706 253.254 415.792 253.688 415.965C254.127 416.138 254.5 416.383 254.808 416.7C255.121 417.017 255.361 417.405 255.529 417.862C255.697 418.319 255.781 418.83 255.781 419.395C255.781 419.964 255.697 420.478 255.529 420.935C255.361 421.392 255.121 421.782 254.808 422.104C254.5 422.426 254.127 422.673 253.688 422.846C253.254 423.019 252.771 423.105 252.239 423.105C251.702 423.105 251.215 423.019 250.776 422.846C250.337 422.673 249.962 422.426 249.649 422.104C249.341 421.782 249.101 421.392 248.928 420.935C248.76 420.478 248.676 419.964 248.676 419.395C248.676 418.83 248.76 418.319 248.928 417.862C249.101 417.405 249.341 417.017 249.649 416.7C249.962 416.383 250.337 416.138 250.776 415.965C251.215 415.792 251.702 415.706 252.239 415.706ZM252.239 421.775C252.836 421.775 253.277 421.574 253.562 421.173C253.851 420.772 253.996 420.184 253.996 419.409C253.996 418.634 253.851 418.044 253.562 417.638C253.277 417.232 252.836 417.029 252.239 417.029C251.632 417.029 251.182 417.234 250.888 417.645C250.599 418.051 250.454 418.639 250.454 419.409C250.454 420.179 250.599 420.767 250.888 421.173C251.182 421.574 251.632 421.775 252.239 421.775ZM258.731 417.064C258.955 416.635 259.221 416.299 259.529 416.056C259.837 415.809 260.201 415.685 260.621 415.685C260.952 415.685 261.218 415.757 261.419 415.902L261.307 417.197C261.284 417.281 261.249 417.342 261.202 417.379C261.16 417.412 261.102 417.428 261.027 417.428C260.957 417.428 260.852 417.416 260.712 417.393C260.577 417.37 260.444 417.358 260.313 417.358C260.122 417.358 259.951 417.386 259.802 417.442C259.653 417.498 259.517 417.58 259.396 417.687C259.279 417.79 259.174 417.916 259.081 418.065C258.992 418.214 258.908 418.385 258.829 418.576V423H257.1V415.818H258.115C258.292 415.818 258.416 415.851 258.486 415.916C258.556 415.977 258.603 416.089 258.626 416.252L258.731 417.064ZM266.021 419.934C265.522 419.957 265.102 420.002 264.761 420.067C264.42 420.128 264.147 420.207 263.942 420.305C263.737 420.403 263.59 420.517 263.501 420.648C263.412 420.779 263.368 420.921 263.368 421.075C263.368 421.378 263.457 421.595 263.634 421.726C263.816 421.857 264.052 421.922 264.341 421.922C264.696 421.922 265.001 421.859 265.258 421.733C265.519 421.602 265.774 421.406 266.021 421.145V419.934ZM262.059 416.819C262.885 416.063 263.879 415.685 265.041 415.685C265.461 415.685 265.837 415.755 266.168 415.895C266.499 416.03 266.779 416.222 267.008 416.469C267.237 416.712 267.409 417.003 267.526 417.344C267.647 417.685 267.708 418.058 267.708 418.464V423H266.924C266.761 423 266.635 422.977 266.546 422.93C266.457 422.879 266.387 422.778 266.336 422.629L266.182 422.111C266 422.274 265.823 422.419 265.65 422.545C265.477 422.666 265.298 422.769 265.111 422.853C264.924 422.937 264.724 423 264.509 423.042C264.299 423.089 264.066 423.112 263.809 423.112C263.506 423.112 263.226 423.072 262.969 422.993C262.712 422.909 262.491 422.785 262.304 422.622C262.117 422.459 261.973 422.256 261.87 422.013C261.767 421.77 261.716 421.488 261.716 421.166C261.716 420.984 261.746 420.804 261.807 420.627C261.868 420.445 261.966 420.272 262.101 420.109C262.241 419.946 262.421 419.792 262.64 419.647C262.859 419.502 263.128 419.376 263.445 419.269C263.767 419.162 264.14 419.075 264.565 419.01C264.99 418.94 265.475 418.898 266.021 418.884V418.464C266.021 417.983 265.918 417.629 265.713 417.4C265.508 417.167 265.211 417.05 264.824 417.05C264.544 417.05 264.311 417.083 264.124 417.148C263.942 417.213 263.781 417.288 263.641 417.372C263.501 417.451 263.373 417.524 263.256 417.589C263.144 417.654 263.018 417.687 262.878 417.687C262.757 417.687 262.654 417.657 262.57 417.596C262.486 417.531 262.418 417.456 262.367 417.372L262.059 416.819ZM271.961 419.234C272.176 419.234 272.363 419.206 272.521 419.15C272.68 419.089 272.811 419.008 272.913 418.905C273.021 418.802 273.1 418.679 273.151 418.534C273.207 418.389 273.235 418.231 273.235 418.058C273.235 417.703 273.128 417.423 272.913 417.218C272.703 417.008 272.386 416.903 271.961 416.903C271.537 416.903 271.217 417.008 271.002 417.218C270.792 417.423 270.687 417.703 270.687 418.058C270.687 418.226 270.713 418.382 270.764 418.527C270.82 418.672 270.9 418.798 271.002 418.905C271.11 419.008 271.243 419.089 271.401 419.15C271.565 419.206 271.751 419.234 271.961 419.234ZM273.914 423.322C273.914 423.182 273.872 423.068 273.788 422.979C273.704 422.89 273.59 422.823 273.445 422.776C273.301 422.725 273.13 422.687 272.934 422.664C272.743 422.641 272.538 422.624 272.318 422.615C272.104 422.601 271.88 422.589 271.646 422.58C271.418 422.571 271.194 422.552 270.974 422.524C270.783 422.631 270.627 422.757 270.505 422.902C270.389 423.047 270.33 423.215 270.33 423.406C270.33 423.532 270.361 423.649 270.421 423.756C270.487 423.868 270.587 423.964 270.722 424.043C270.862 424.122 271.042 424.183 271.261 424.225C271.481 424.272 271.749 424.295 272.066 424.295C272.388 424.295 272.666 424.269 272.899 424.218C273.133 424.171 273.324 424.104 273.473 424.015C273.627 423.931 273.739 423.828 273.809 423.707C273.879 423.59 273.914 423.462 273.914 423.322ZM275.636 416.063V416.707C275.636 416.912 275.513 417.038 275.265 417.085L274.621 417.204C274.719 417.451 274.768 417.722 274.768 418.016C274.768 418.371 274.696 418.693 274.551 418.982C274.411 419.267 274.215 419.509 273.963 419.71C273.711 419.911 273.413 420.067 273.067 420.179C272.727 420.286 272.358 420.34 271.961 420.34C271.821 420.34 271.686 420.333 271.555 420.319C271.425 420.305 271.296 420.286 271.17 420.263C270.946 420.398 270.834 420.55 270.834 420.718C270.834 420.863 270.9 420.97 271.03 421.04C271.166 421.105 271.343 421.152 271.562 421.18C271.782 421.208 272.031 421.227 272.311 421.236C272.591 421.241 272.878 421.255 273.172 421.278C273.466 421.301 273.753 421.343 274.033 421.404C274.313 421.46 274.563 421.551 274.782 421.677C275.002 421.803 275.177 421.976 275.307 422.195C275.443 422.41 275.51 422.687 275.51 423.028C275.51 423.345 275.431 423.653 275.272 423.952C275.118 424.251 274.892 424.517 274.593 424.75C274.299 424.983 273.935 425.17 273.501 425.31C273.072 425.455 272.582 425.527 272.031 425.527C271.49 425.527 271.019 425.473 270.617 425.366C270.216 425.263 269.882 425.123 269.616 424.946C269.35 424.773 269.152 424.573 269.021 424.344C268.891 424.115 268.825 423.877 268.825 423.63C268.825 423.294 268.926 423.014 269.126 422.79C269.332 422.561 269.612 422.379 269.966 422.244C269.775 422.146 269.623 422.015 269.511 421.852C269.399 421.689 269.343 421.474 269.343 421.208C269.343 421.101 269.362 420.991 269.399 420.879C269.441 420.762 269.5 420.648 269.574 420.536C269.654 420.424 269.752 420.319 269.868 420.221C269.985 420.118 270.123 420.027 270.281 419.948C269.917 419.752 269.63 419.491 269.42 419.164C269.215 418.837 269.112 418.455 269.112 418.016C269.112 417.661 269.182 417.342 269.322 417.057C269.467 416.768 269.665 416.523 269.917 416.322C270.174 416.117 270.475 415.96 270.82 415.853C271.17 415.746 271.551 415.692 271.961 415.692C272.269 415.692 272.559 415.725 272.829 415.79C273.1 415.851 273.347 415.942 273.571 416.063H275.636ZM281.237 418.583C281.237 418.359 281.204 418.149 281.139 417.953C281.078 417.752 280.985 417.577 280.859 417.428C280.733 417.279 280.572 417.162 280.376 417.078C280.185 416.989 279.961 416.945 279.704 416.945C279.205 416.945 278.81 417.087 278.521 417.372C278.236 417.657 278.054 418.06 277.975 418.583H281.237ZM277.94 419.626C277.968 419.995 278.033 420.314 278.136 420.585C278.239 420.851 278.374 421.073 278.542 421.25C278.71 421.423 278.908 421.553 279.137 421.642C279.37 421.726 279.627 421.768 279.907 421.768C280.187 421.768 280.427 421.735 280.628 421.67C280.833 421.605 281.011 421.532 281.16 421.453C281.314 421.374 281.447 421.301 281.559 421.236C281.676 421.171 281.788 421.138 281.895 421.138C282.04 421.138 282.147 421.192 282.217 421.299L282.714 421.929C282.523 422.153 282.308 422.342 282.07 422.496C281.832 422.645 281.582 422.767 281.321 422.86C281.064 422.949 280.801 423.012 280.53 423.049C280.264 423.086 280.005 423.105 279.753 423.105C279.254 423.105 278.789 423.023 278.36 422.86C277.931 422.692 277.557 422.447 277.24 422.125C276.923 421.798 276.673 421.397 276.491 420.921C276.309 420.44 276.218 419.885 276.218 419.255C276.218 418.765 276.297 418.305 276.456 417.876C276.615 417.442 276.841 417.066 277.135 416.749C277.434 416.427 277.795 416.173 278.22 415.986C278.649 415.799 279.132 415.706 279.669 415.706C280.122 415.706 280.539 415.778 280.922 415.923C281.305 416.068 281.634 416.28 281.909 416.56C282.184 416.835 282.399 417.176 282.553 417.582C282.712 417.983 282.791 418.443 282.791 418.961C282.791 419.222 282.763 419.4 282.707 419.493C282.651 419.582 282.544 419.626 282.385 419.626H277.94Z" fill="#253343"/>
<rect x="132" y="401" width="52" height="52" rx="6" fill="#F5F7FA"/>
<circle cx="158" cy="427" r="8" fill="#E9EDF5" stroke="#7A90AA" stroke-width="1.75" stroke-linecap="round" stroke-linejoin="round"/>
<path d="M225.121 178.948V189H223.819V181.846C223.819 181.739 223.821 181.624 223.826 181.503C223.835 181.382 223.844 181.258 223.854 181.132L220.508 187.271C220.391 187.5 220.211 187.614 219.969 187.614H219.759C219.516 187.614 219.339 187.5 219.227 187.271L215.818 181.111C215.846 181.372 215.86 181.617 215.86 181.846V189H214.551V178.948H215.657C215.787 178.948 215.888 178.962 215.958 178.99C216.032 179.013 216.102 179.083 216.168 179.2L219.528 185.22C219.593 185.341 219.654 185.47 219.71 185.605C219.766 185.74 219.819 185.876 219.871 186.011C219.969 185.736 220.083 185.47 220.214 185.213L223.511 179.2C223.571 179.083 223.637 179.013 223.707 178.99C223.781 178.962 223.884 178.948 224.015 178.948H225.121ZM230.139 181.776C230.662 181.776 231.133 181.862 231.553 182.035C231.978 182.203 232.337 182.448 232.631 182.77C232.93 183.087 233.159 183.472 233.317 183.925C233.476 184.373 233.555 184.877 233.555 185.437C233.555 185.997 233.476 186.503 233.317 186.956C233.159 187.409 232.93 187.794 232.631 188.111C232.337 188.428 231.978 188.673 231.553 188.846C231.133 189.014 230.662 189.098 230.139 189.098C229.612 189.098 229.136 189.014 228.711 188.846C228.291 188.673 227.932 188.428 227.633 188.111C227.335 187.794 227.104 187.409 226.94 186.956C226.782 186.503 226.702 185.997 226.702 185.437C226.702 184.877 226.782 184.373 226.94 183.925C227.104 183.472 227.335 183.087 227.633 182.77C227.932 182.448 228.291 182.203 228.711 182.035C229.136 181.862 229.612 181.776 230.139 181.776ZM230.139 188.034C230.811 188.034 231.313 187.808 231.644 187.355C231.976 186.902 232.141 186.265 232.141 185.444C232.141 184.623 231.976 183.986 231.644 183.533C231.313 183.076 230.811 182.847 230.139 182.847C229.458 182.847 228.949 183.076 228.613 183.533C228.282 183.986 228.116 184.623 228.116 185.444C228.116 186.265 228.282 186.902 228.613 187.355C228.949 187.808 229.458 188.034 230.139 188.034ZM236.36 182.875C236.514 182.712 236.675 182.562 236.843 182.427C237.011 182.292 237.188 182.177 237.375 182.084C237.566 181.986 237.769 181.911 237.984 181.86C238.203 181.804 238.437 181.776 238.684 181.776C239.076 181.776 239.419 181.841 239.713 181.972C240.012 182.103 240.261 182.287 240.462 182.525C240.663 182.758 240.814 183.041 240.917 183.372C241.02 183.703 241.071 184.07 241.071 184.471V189H239.699V184.471C239.699 183.962 239.582 183.568 239.349 183.288C239.116 183.003 238.759 182.861 238.278 182.861C237.928 182.861 237.599 182.945 237.291 183.113C236.988 183.276 236.705 183.5 236.444 183.785V189H235.079V181.888H235.898C236.089 181.888 236.208 181.979 236.255 182.161L236.36 182.875ZM245.043 189.112C244.469 189.112 244.026 188.951 243.713 188.629C243.405 188.307 243.251 187.847 243.251 187.25V182.994H242.425C242.346 182.994 242.278 182.971 242.222 182.924C242.171 182.873 242.145 182.798 242.145 182.7V182.147L243.3 181.986L243.608 179.865C243.627 179.786 243.662 179.725 243.713 179.683C243.769 179.636 243.839 179.613 243.923 179.613H244.616V182H246.632V182.994H244.616V187.159C244.616 187.439 244.684 187.649 244.819 187.789C244.959 187.924 245.137 187.992 245.351 187.992C245.477 187.992 245.585 187.976 245.673 187.943C245.767 187.91 245.846 187.875 245.911 187.838C245.977 187.796 246.033 187.759 246.079 187.726C246.126 187.693 246.168 187.677 246.205 187.677C246.252 187.677 246.287 187.689 246.31 187.712C246.338 187.731 246.366 187.763 246.394 187.81L246.8 188.468C246.576 188.673 246.31 188.832 246.002 188.944C245.694 189.056 245.375 189.112 245.043 189.112ZM249.255 182.791C249.553 182.488 249.882 182.243 250.242 182.056C250.606 181.869 251.023 181.776 251.495 181.776C251.887 181.776 252.23 181.841 252.524 181.972C252.822 182.103 253.072 182.287 253.273 182.525C253.473 182.758 253.625 183.041 253.728 183.372C253.83 183.703 253.882 184.07 253.882 184.471V189H252.51V184.471C252.51 183.962 252.393 183.568 252.16 183.288C251.926 183.003 251.569 182.861 251.089 182.861C250.739 182.861 250.41 182.945 250.102 183.113C249.798 183.276 249.516 183.5 249.255 183.785V189H247.89V178.668H249.255V182.791ZM257.124 178.668V189H255.752V178.668H257.124ZM265.289 181.888L261.341 191.065C261.299 191.168 261.243 191.247 261.173 191.303C261.103 191.359 261.001 191.387 260.865 191.387H259.85L261.152 188.552L258.233 181.888H259.423C259.54 181.888 259.631 181.916 259.696 181.972C259.762 182.028 259.808 182.091 259.836 182.161L261.642 186.431C261.68 186.538 261.715 186.648 261.747 186.76C261.785 186.867 261.815 186.975 261.838 187.082C261.871 186.97 261.906 186.86 261.943 186.753C261.981 186.641 262.02 186.531 262.062 186.424L263.805 182.161C263.838 182.082 263.889 182.016 263.959 181.965C264.029 181.914 264.109 181.888 264.197 181.888H265.289ZM274.243 184.653C274.243 184.382 274.204 184.133 274.124 183.904C274.05 183.675 273.938 183.477 273.788 183.309C273.639 183.141 273.457 183.01 273.242 182.917C273.028 182.824 272.78 182.777 272.5 182.777C271.926 182.777 271.474 182.943 271.142 183.274C270.816 183.605 270.608 184.065 270.519 184.653H274.243ZM275.37 187.985C275.202 188.181 275.009 188.351 274.789 188.496C274.57 188.636 274.337 188.75 274.089 188.839C273.842 188.928 273.585 188.993 273.319 189.035C273.058 189.077 272.799 189.098 272.542 189.098C272.052 189.098 271.597 189.016 271.177 188.853C270.762 188.685 270.4 188.442 270.092 188.125C269.789 187.803 269.551 187.406 269.378 186.935C269.21 186.459 269.126 185.913 269.126 185.297C269.126 184.802 269.203 184.343 269.357 183.918C269.511 183.489 269.731 183.115 270.015 182.798C270.305 182.481 270.657 182.231 271.072 182.049C271.488 181.867 271.954 181.776 272.472 181.776C272.906 181.776 273.305 181.848 273.669 181.993C274.038 182.133 274.355 182.338 274.621 182.609C274.887 182.88 275.095 183.213 275.244 183.61C275.398 184.007 275.475 184.459 275.475 184.968C275.475 185.178 275.452 185.32 275.405 185.395C275.359 185.465 275.272 185.5 275.146 185.5H270.484C270.498 185.925 270.559 186.296 270.666 186.613C270.774 186.926 270.921 187.187 271.107 187.397C271.299 187.607 271.525 187.763 271.786 187.866C272.048 187.969 272.339 188.02 272.661 188.02C272.965 188.02 273.226 187.985 273.445 187.915C273.669 187.845 273.861 187.77 274.019 187.691C274.183 187.607 274.318 187.53 274.425 187.46C274.537 187.39 274.635 187.355 274.719 187.355C274.831 187.355 274.918 187.397 274.978 187.481L275.37 187.985ZM281.135 183.113C281.098 183.174 281.058 183.218 281.016 183.246C280.974 183.269 280.921 183.281 280.855 183.281C280.781 183.281 280.697 183.255 280.603 183.204C280.515 183.153 280.405 183.097 280.274 183.036C280.148 182.975 279.999 182.919 279.826 182.868C279.654 182.817 279.448 182.791 279.21 182.791C279.014 182.791 278.835 182.817 278.671 182.868C278.513 182.915 278.377 182.982 278.265 183.071C278.153 183.155 278.067 183.258 278.006 183.379C277.946 183.496 277.915 183.622 277.915 183.757C277.915 183.934 277.967 184.081 278.069 184.198C278.177 184.315 278.314 184.415 278.482 184.499C278.655 184.583 278.849 184.66 279.063 184.73C279.283 184.795 279.504 184.865 279.728 184.94C279.957 185.015 280.179 185.101 280.393 185.199C280.613 185.292 280.806 185.411 280.974 185.556C281.147 185.696 281.285 185.866 281.387 186.067C281.495 186.268 281.548 186.513 281.548 186.802C281.548 187.133 281.488 187.441 281.366 187.726C281.25 188.006 281.075 188.249 280.841 188.454C280.613 188.659 280.328 188.82 279.987 188.937C279.647 189.054 279.257 189.112 278.818 189.112C278.328 189.112 277.876 189.03 277.46 188.867C277.045 188.704 276.697 188.496 276.417 188.244L276.739 187.719C276.777 187.654 276.823 187.605 276.879 187.572C276.935 187.535 277.01 187.516 277.103 187.516C277.192 187.516 277.283 187.549 277.376 187.614C277.47 187.679 277.582 187.752 277.712 187.831C277.843 187.906 278.002 187.976 278.188 188.041C278.375 188.102 278.608 188.132 278.888 188.132C279.122 188.132 279.325 188.104 279.497 188.048C279.67 187.987 279.812 187.908 279.924 187.81C280.041 187.707 280.127 187.591 280.183 187.46C280.239 187.329 280.267 187.192 280.267 187.047C280.267 186.86 280.214 186.706 280.106 186.585C280.004 186.459 279.866 186.352 279.693 186.263C279.525 186.174 279.332 186.097 279.112 186.032C278.893 185.967 278.669 185.897 278.44 185.822C278.212 185.747 277.988 185.661 277.768 185.563C277.549 185.465 277.353 185.341 277.18 185.192C277.012 185.043 276.875 184.861 276.767 184.646C276.665 184.431 276.613 184.17 276.613 183.862C276.613 183.587 276.669 183.323 276.781 183.071C276.898 182.819 277.064 182.597 277.278 182.406C277.498 182.215 277.766 182.063 278.083 181.951C278.405 181.834 278.772 181.776 279.182 181.776C279.654 181.776 280.078 181.851 280.456 182C280.839 182.149 281.166 182.355 281.436 182.616L281.135 183.113ZM289.767 189H288.395V182.994H284.825V187.159C284.825 187.439 284.893 187.649 285.028 187.789C285.168 187.924 285.346 187.992 285.56 187.992C285.686 187.992 285.794 187.976 285.882 187.943C285.976 187.91 286.055 187.875 286.12 187.838C286.186 187.796 286.242 187.759 286.288 187.726C286.335 187.693 286.377 187.677 286.414 187.677C286.461 187.677 286.496 187.689 286.519 187.712C286.547 187.731 286.575 187.763 286.603 187.81L287.009 188.468C286.785 188.673 286.519 188.832 286.211 188.944C285.903 189.056 285.584 189.112 285.252 189.112C284.678 189.112 284.235 188.951 283.922 188.629C283.614 188.307 283.46 187.847 283.46 187.25V182.994H282.634C282.555 182.994 282.487 182.971 282.431 182.924C282.38 182.873 282.354 182.798 282.354 182.7V182.147L283.516 181.986L283.817 179.865C283.836 179.786 283.871 179.725 283.922 179.683C283.978 179.636 284.048 179.613 284.132 179.613H284.825V182H289.767V189ZM290.075 179.648C290.075 179.774 290.05 179.895 289.998 180.012C289.947 180.124 289.877 180.224 289.788 180.313C289.704 180.397 289.604 180.465 289.487 180.516C289.371 180.563 289.249 180.586 289.123 180.586C288.997 180.586 288.878 180.563 288.766 180.516C288.654 180.465 288.554 180.397 288.465 180.313C288.381 180.224 288.314 180.124 288.262 180.012C288.216 179.895 288.192 179.774 288.192 179.648C288.192 179.517 288.216 179.394 288.262 179.277C288.314 179.16 288.381 179.06 288.465 178.976C288.554 178.887 288.654 178.82 288.766 178.773C288.878 178.722 288.997 178.696 289.123 178.696C289.249 178.696 289.371 178.722 289.487 178.773C289.604 178.82 289.704 178.887 289.788 178.976C289.877 179.06 289.947 179.16 289.998 179.277C290.05 179.394 290.075 179.517 290.075 179.648ZM291.749 189V181.888H292.568C292.759 181.888 292.878 181.979 292.925 182.161L293.023 182.84C293.284 182.527 293.574 182.273 293.891 182.077C294.213 181.876 294.589 181.776 295.018 181.776C295.489 181.776 295.872 181.907 296.166 182.168C296.46 182.425 296.675 182.775 296.81 183.218C296.913 182.966 297.046 182.749 297.209 182.567C297.372 182.385 297.554 182.236 297.755 182.119C297.956 182.002 298.168 181.916 298.392 181.86C298.621 181.804 298.852 181.776 299.085 181.776C299.463 181.776 299.799 181.837 300.093 181.958C300.392 182.075 300.644 182.247 300.849 182.476C301.054 182.705 301.211 182.987 301.318 183.323C301.425 183.659 301.479 184.042 301.479 184.471V189H300.107V184.471C300.107 183.939 299.99 183.538 299.757 183.267C299.528 182.996 299.192 182.861 298.749 182.861C298.553 182.861 298.366 182.896 298.189 182.966C298.012 183.031 297.855 183.132 297.72 183.267C297.589 183.402 297.484 183.57 297.405 183.771C297.33 183.972 297.293 184.205 297.293 184.471V189H295.921V184.471C295.921 183.92 295.811 183.514 295.592 183.253C295.373 182.992 295.051 182.861 294.626 182.861C294.332 182.861 294.059 182.938 293.807 183.092C293.555 183.246 293.324 183.456 293.114 183.722V189H291.749ZM307.137 185.843C306.582 185.862 306.111 185.906 305.723 185.976C305.336 186.041 305.021 186.13 304.778 186.242C304.536 186.354 304.361 186.487 304.253 186.641C304.146 186.79 304.092 186.958 304.092 187.145C304.092 187.322 304.12 187.476 304.176 187.607C304.237 187.733 304.316 187.838 304.414 187.922C304.517 188.001 304.636 188.06 304.771 188.097C304.907 188.134 305.054 188.153 305.212 188.153C305.422 188.153 305.614 188.132 305.786 188.09C305.964 188.048 306.129 187.99 306.283 187.915C306.437 187.836 306.584 187.74 306.724 187.628C306.864 187.516 307.002 187.388 307.137 187.243V185.843ZM303.133 182.882C303.53 182.504 303.959 182.222 304.421 182.035C304.888 181.848 305.399 181.755 305.954 181.755C306.36 181.755 306.72 181.823 307.032 181.958C307.345 182.089 307.609 182.273 307.823 182.511C308.038 182.749 308.199 183.034 308.306 183.365C308.418 183.696 308.474 184.063 308.474 184.464V189H307.865C307.73 189 307.627 188.979 307.557 188.937C307.487 188.89 307.431 188.806 307.389 188.685L307.242 188.062C307.06 188.23 306.881 188.379 306.703 188.51C306.526 188.636 306.339 188.746 306.143 188.839C305.952 188.928 305.747 188.995 305.527 189.042C305.308 189.089 305.065 189.112 304.799 189.112C304.519 189.112 304.256 189.075 304.008 189C303.766 188.921 303.553 188.802 303.371 188.643C303.189 188.484 303.045 188.286 302.937 188.048C302.835 187.81 302.783 187.532 302.783 187.215C302.783 186.935 302.858 186.667 303.007 186.41C303.161 186.149 303.409 185.915 303.749 185.71C304.095 185.505 304.543 185.337 305.093 185.206C305.649 185.075 306.33 185.001 307.137 184.982V184.464C307.137 183.927 307.023 183.526 306.794 183.26C306.566 182.994 306.23 182.861 305.786 182.861C305.488 182.861 305.236 182.898 305.03 182.973C304.83 183.048 304.655 183.132 304.505 183.225C304.361 183.314 304.232 183.395 304.12 183.47C304.013 183.545 303.901 183.582 303.784 183.582C303.691 183.582 303.609 183.556 303.539 183.505C303.474 183.454 303.42 183.393 303.378 183.323L303.133 182.882ZM312.432 189.112C311.858 189.112 311.415 188.951 311.102 188.629C310.794 188.307 310.64 187.847 310.64 187.25V182.994H309.814C309.735 182.994 309.667 182.971 309.611 182.924C309.56 182.873 309.534 182.798 309.534 182.7V182.147L310.689 181.986L310.997 179.865C311.016 179.786 311.051 179.725 311.102 179.683C311.158 179.636 311.228 179.613 311.312 179.613H312.005V182H314.021V182.994H312.005V187.159C312.005 187.439 312.073 187.649 312.208 187.789C312.348 187.924 312.525 187.992 312.74 187.992C312.866 187.992 312.973 187.976 313.062 187.943C313.155 187.91 313.235 187.875 313.3 187.838C313.365 187.796 313.421 187.759 313.468 187.726C313.515 187.693 313.557 187.677 313.594 187.677C313.641 187.677 313.676 187.689 313.699 187.712C313.727 187.731 313.755 187.763 313.783 187.81L314.189 188.468C313.965 188.673 313.699 188.832 313.391 188.944C313.083 189.056 312.763 189.112 312.432 189.112ZM319.948 184.653C319.948 184.382 319.909 184.133 319.829 183.904C319.755 183.675 319.643 183.477 319.493 183.309C319.344 183.141 319.162 183.01 318.947 182.917C318.733 182.824 318.485 182.777 318.205 182.777C317.631 182.777 317.179 182.943 316.847 183.274C316.521 183.605 316.313 184.065 316.224 184.653H319.948ZM321.075 187.985C320.907 188.181 320.714 188.351 320.494 188.496C320.275 188.636 320.042 188.75 319.794 188.839C319.547 188.928 319.29 188.993 319.024 189.035C318.763 189.077 318.504 189.098 318.247 189.098C317.757 189.098 317.302 189.016 316.882 188.853C316.467 188.685 316.105 188.442 315.797 188.125C315.494 187.803 315.256 187.406 315.083 186.935C314.915 186.459 314.831 185.913 314.831 185.297C314.831 184.802 314.908 184.343 315.062 183.918C315.216 183.489 315.436 183.115 315.72 182.798C316.01 182.481 316.362 182.231 316.777 182.049C317.193 181.867 317.659 181.776 318.177 181.776C318.611 181.776 319.01 181.848 319.374 181.993C319.743 182.133 320.06 182.338 320.326 182.609C320.592 182.88 320.8 183.213 320.949 183.61C321.103 184.007 321.18 184.459 321.18 184.968C321.18 185.178 321.157 185.32 321.11 185.395C321.064 185.465 320.977 185.5 320.851 185.5H316.189C316.203 185.925 316.264 186.296 316.371 186.613C316.479 186.926 316.626 187.187 316.812 187.397C317.004 187.607 317.23 187.763 317.491 187.866C317.753 187.969 318.044 188.02 318.366 188.02C318.67 188.02 318.931 187.985 319.15 187.915C319.374 187.845 319.566 187.77 319.724 187.691C319.888 187.607 320.023 187.53 320.13 187.46C320.242 187.39 320.34 187.355 320.424 187.355C320.536 187.355 320.623 187.397 320.683 187.481L321.075 187.985Z" fill="#7E8FA8"/>
<path d="M241.935 158.46V152.784C241.935 152.248 241.971 151.656 242.043 151.008L236.655 158.46H241.935ZM246.699 158.46V160.176C246.699 160.336 246.647 160.476 246.543 160.596C246.439 160.708 246.291 160.764 246.099 160.764H244.515V165H241.935V160.764H234.615C234.415 160.764 234.239 160.704 234.087 160.584C233.935 160.456 233.839 160.3 233.799 160.116L233.487 158.616L241.707 147.636H244.515V158.46H246.699ZM248.345 163.368C248.345 163.12 248.389 162.884 248.477 162.66C248.573 162.436 248.701 162.244 248.861 162.084C249.021 161.924 249.213 161.796 249.437 161.7C249.661 161.604 249.901 161.556 250.157 161.556C250.413 161.556 250.649 161.604 250.865 161.7C251.089 161.796 251.281 161.924 251.441 162.084C251.609 162.244 251.741 162.436 251.837 162.66C251.933 162.884 251.981 163.12 251.981 163.368C251.981 163.624 251.933 163.864 251.837 164.088C251.741 164.304 251.609 164.492 251.441 164.652C251.281 164.812 251.089 164.936 250.865 165.024C250.649 165.12 250.413 165.168 250.157 165.168C249.901 165.168 249.661 165.12 249.437 165.024C249.213 164.936 249.021 164.812 248.861 164.652C248.701 164.492 248.573 164.304 248.477 164.088C248.389 163.864 248.345 163.624 248.345 163.368ZM256.968 152.856C256.968 153.824 257.216 154.564 257.712 155.076C258.216 155.58 258.928 155.832 259.848 155.832C260.328 155.832 260.756 155.756 261.132 155.604C261.508 155.452 261.824 155.244 262.08 154.98C262.336 154.716 262.528 154.404 262.656 154.044C262.792 153.684 262.86 153.296 262.86 152.88C262.86 152.408 262.788 151.988 262.644 151.62C262.5 151.244 262.296 150.928 262.032 150.672C261.768 150.416 261.452 150.22 261.084 150.084C260.724 149.948 260.328 149.88 259.896 149.88C259.448 149.88 259.044 149.956 258.684 150.108C258.324 150.252 258.016 150.456 257.76 150.72C257.504 150.984 257.308 151.3 257.172 151.668C257.036 152.028 256.968 152.424 256.968 152.856ZM260.904 158.268C261.04 158.1 261.168 157.936 261.288 157.776C261.408 157.616 261.524 157.456 261.636 157.296C261.236 157.552 260.796 157.748 260.316 157.884C259.836 158.012 259.332 158.076 258.804 158.076C258.204 158.076 257.616 157.972 257.04 157.764C256.464 157.556 255.952 157.244 255.504 156.828C255.056 156.404 254.692 155.884 254.412 155.268C254.14 154.644 254.004 153.916 254.004 153.084C254.004 152.308 254.148 151.58 254.436 150.9C254.724 150.22 255.128 149.624 255.648 149.112C256.168 148.6 256.792 148.196 257.52 147.9C258.248 147.604 259.052 147.456 259.932 147.456C260.82 147.456 261.616 147.596 262.32 147.876C263.032 148.156 263.636 148.548 264.132 149.052C264.636 149.556 265.02 150.16 265.284 150.864C265.556 151.568 265.692 152.34 265.692 153.18C265.692 153.716 265.644 154.224 265.548 154.704C265.46 155.184 265.332 155.648 265.164 156.096C264.996 156.536 264.792 156.968 264.552 157.392C264.312 157.816 264.044 158.236 263.748 158.652L259.776 164.316C259.64 164.508 259.436 164.672 259.164 164.808C258.892 164.936 258.584 165 258.24 165H255.516L260.904 158.268ZM270.89 152.856C270.89 153.824 271.138 154.564 271.634 155.076C272.138 155.58 272.85 155.832 273.77 155.832C274.25 155.832 274.678 155.756 275.054 155.604C275.43 155.452 275.746 155.244 276.002 154.98C276.258 154.716 276.45 154.404 276.578 154.044C276.714 153.684 276.782 153.296 276.782 152.88C276.782 152.408 276.71 151.988 276.566 151.62C276.422 151.244 276.218 150.928 275.954 150.672C275.69 150.416 275.374 150.22 275.006 150.084C274.646 149.948 274.25 149.88 273.818 149.88C273.37 149.88 272.966 149.956 272.606 150.108C272.246 150.252 271.938 150.456 271.682 150.72C271.426 150.984 271.23 151.3 271.094 151.668C270.958 152.028 270.89 152.424 270.89 152.856ZM274.826 158.268C274.962 158.1 275.09 157.936 275.21 157.776C275.33 157.616 275.446 157.456 275.558 157.296C275.158 157.552 274.718 157.748 274.238 157.884C273.758 158.012 273.254 158.076 272.726 158.076C272.126 158.076 271.538 157.972 270.962 157.764C270.386 157.556 269.874 157.244 269.426 156.828C268.978 156.404 268.614 155.884 268.334 155.268C268.062 154.644 267.926 153.916 267.926 153.084C267.926 152.308 268.07 151.58 268.358 150.9C268.646 150.22 269.05 149.624 269.57 149.112C270.09 148.6 270.714 148.196 271.442 147.9C272.17 147.604 272.974 147.456 273.854 147.456C274.742 147.456 275.538 147.596 276.242 147.876C276.954 148.156 277.558 148.548 278.054 149.052C278.558 149.556 278.942 150.16 279.206 150.864C279.478 151.568 279.614 152.34 279.614 153.18C279.614 153.716 279.566 154.224 279.47 154.704C279.382 155.184 279.254 155.648 279.086 156.096C278.918 156.536 278.714 156.968 278.474 157.392C278.234 157.816 277.966 158.236 277.67 158.652L273.698 164.316C273.562 164.508 273.358 164.672 273.086 164.808C272.814 164.936 272.506 165 272.162 165H269.438L274.826 158.268ZM294.26 162.684C295.108 162.572 295.748 162.288 296.18 161.832C296.62 161.368 296.84 160.764 296.84 160.02C296.84 159.716 296.784 159.452 296.672 159.228C296.568 158.996 296.416 158.792 296.216 158.616C296.024 158.44 295.796 158.288 295.532 158.16C295.268 158.032 294.98 157.912 294.668 157.8L294.26 162.684ZM293.492 150C293.044 150.056 292.664 150.152 292.352 150.288C292.04 150.416 291.784 150.576 291.584 150.768C291.384 150.96 291.236 151.176 291.14 151.416C291.052 151.656 291.008 151.908 291.008 152.172C291.008 152.476 291.06 152.744 291.164 152.976C291.276 153.2 291.424 153.404 291.608 153.588C291.8 153.764 292.024 153.924 292.28 154.068C292.536 154.204 292.816 154.332 293.12 154.452L293.492 150ZM294.896 155.028C295.472 155.204 296.044 155.4 296.612 155.616C297.18 155.824 297.688 156.096 298.136 156.432C298.592 156.768 298.96 157.188 299.24 157.692C299.52 158.188 299.66 158.812 299.66 159.564C299.66 160.308 299.536 161.008 299.288 161.664C299.04 162.312 298.676 162.888 298.196 163.392C297.716 163.888 297.128 164.296 296.432 164.616C295.736 164.928 294.94 165.112 294.044 165.168L293.9 166.932C293.892 167.116 293.812 167.284 293.66 167.436C293.516 167.596 293.332 167.676 293.108 167.676H292.016L292.232 165.108C291.296 164.98 290.416 164.724 289.592 164.34C288.768 163.956 288.068 163.48 287.492 162.912L288.404 161.556C288.484 161.436 288.588 161.34 288.716 161.268C288.852 161.188 288.996 161.148 289.148 161.148C289.324 161.148 289.512 161.212 289.712 161.34C289.912 161.46 290.14 161.604 290.396 161.772C290.652 161.932 290.944 162.096 291.272 162.264C291.6 162.432 291.988 162.556 292.436 162.636L292.88 157.272C292.312 157.112 291.748 156.924 291.188 156.708C290.636 156.492 290.136 156.208 289.688 155.856C289.248 155.496 288.892 155.044 288.62 154.5C288.348 153.956 288.212 153.276 288.212 152.46C288.212 151.852 288.332 151.26 288.572 150.684C288.812 150.1 289.164 149.58 289.628 149.124C290.1 148.668 290.676 148.292 291.356 147.996C292.036 147.7 292.816 147.532 293.696 147.492L293.828 145.98C293.844 145.788 293.924 145.616 294.068 145.464C294.212 145.312 294.4 145.236 294.632 145.236H295.724L295.532 147.588C296.38 147.724 297.112 147.968 297.728 148.32C298.344 148.664 298.876 149.052 299.324 149.484L298.604 150.576C298.5 150.736 298.392 150.856 298.28 150.936C298.168 151.016 298.032 151.056 297.872 151.056C297.752 151.056 297.608 151.02 297.44 150.948C297.272 150.868 297.084 150.776 296.876 150.672C296.668 150.56 296.432 150.448 296.168 150.336C295.912 150.224 295.628 150.132 295.316 150.06L294.896 155.028Z" fill="#344456"/>
<rect x="239" y="78" width="56.0801" height="56" rx="28" fill="url(#paint2_linear_2_4265)"/>
<path d="M269.628 117.46H278.87" stroke="#005B5B" stroke-width="2.21812" stroke-linecap="round" stroke-linejoin="round"/>
<path d="M255.21 117.46H264.452" stroke="#005B5B" stroke-width="2.21812" stroke-linecap="round" stroke-linejoin="round"/>
<path d="M268.869 115.631C269.879 116.641 269.879 118.279 268.869 119.291C267.859 120.301 266.221 120.301 265.209 119.291C264.199 118.281 264.199 116.642 265.209 115.631C266.221 114.619 267.859 114.619 268.869 115.631" stroke="#005B5B" stroke-width="2.21812" stroke-linecap="round" stroke-linejoin="round"/>
<path d="M267.04 111.176V114.872" stroke="#005B5B" stroke-width="2.21812" stroke-linecap="round" stroke-linejoin="round"/>
<path fill-rule="evenodd" clip-rule="evenodd" d="M274.434 93.4304H259.646C257.196 93.4304 255.21 95.4164 255.21 97.8667V97.8667C255.21 100.317 257.196 102.303 259.646 102.303H274.434C276.884 102.303 278.87 100.317 278.87 97.8667V97.8667C278.87 95.4164 276.884 93.4304 274.434 93.4304Z" stroke="#005B5B" stroke-width="2.21812" stroke-linecap="round" stroke-linejoin="round"/>
<path fill-rule="evenodd" clip-rule="evenodd" d="M274.434 102.303H259.646C257.196 102.303 255.21 104.289 255.21 106.739V106.739C255.21 109.19 257.196 111.175 259.646 111.175H274.434C276.884 111.175 278.87 109.19 278.87 106.739V106.739C278.87 104.289 276.884 102.303 274.434 102.303Z" stroke="#005B5B" stroke-width="2.21812" stroke-linecap="round" stroke-linejoin="round"/>
<path d="M267.04 97.8668H274.434" stroke="#00BABA" stroke-width="2.21812" stroke-linecap="round" stroke-linejoin="round"/>
<path d="M259.698 97.8151C259.728 97.8446 259.728 97.8905 259.698 97.92C259.668 97.9496 259.623 97.9496 259.593 97.92C259.563 97.8905 259.563 97.8446 259.593 97.8151C259.623 97.7855 259.67 97.7855 259.698 97.8151" stroke="#00BABA" stroke-width="2.21812" stroke-linecap="round" stroke-linejoin="round"/>
<path d="M267.04 106.739H274.434" stroke="#00BABA" stroke-width="2.21812" stroke-linecap="round" stroke-linejoin="round"/>
<path d="M259.698 106.688C259.728 106.717 259.728 106.763 259.698 106.793C259.668 106.822 259.623 106.822 259.593 106.793C259.563 106.763 259.563 106.717 259.593 106.688C259.623 106.658 259.67 106.658 259.698 106.688" stroke="#00BABA" stroke-width="2.21812" stroke-linecap="round" stroke-linejoin="round"/>
<g filter="url(#filter4_d_2_4265)">
<path d="M511.358 47.0571L494.24 40.1459C492.626 39.4943 491.011 41.0795 491.632 42.7055L497.949 59.2382C498.577 60.8833 500.875 60.9645 501.618 59.3678L504.316 53.5702C504.556 53.054 505.006 52.6652 505.551 52.5019L511.184 50.8146C512.989 50.274 513.106 47.7624 511.358 47.0571Z" fill="#00BABA"/>
<path d="M511.358 47.0571L494.24 40.1459C492.626 39.4943 491.011 41.0795 491.632 42.7055L497.949 59.2382C498.577 60.8833 500.875 60.9645 501.618 59.3678L504.316 53.5702C504.556 53.054 505.006 52.6652 505.551 52.5019L511.184 50.8146C512.989 50.274 513.106 47.7624 511.358 47.0571Z" stroke="white" stroke-width="2.98974"/>
</g>
<rect width="101" height="65" transform="matrix(1 0 0 -1 217 536)" fill="url(#paint3_linear_2_4265)"/>
<defs>
<filter id="filter0_d_2_4265" x="70" y="37" width="396" height="489" filterUnits="userSpaceOnUse" color-interpolation-filters="sRGB">
<feFlood flood-opacity="0" result="BackgroundImageFix"/>
<feColorMatrix in="SourceAlpha" type="matrix" values="0 0 0 0 0 0 0 0 0 0 0 0 0 0 0 0 0 0 127 0" result="hardAlpha"/>
<feOffset dy="14"/>
<feGaussianBlur stdDeviation="17"/>
<feComposite in2="hardAlpha" operator="out"/>
<feColorMatrix type="matrix" values="0 0 0 0 0 0 0 0 0 0.209091 0 0 0 0 0.383333 0 0 0 0.04 0"/>
<feBlend mode="normal" in2="BackgroundImageFix" result="effect1_dropShadow_2_4265"/>
<feBlend mode="normal" in="SourceGraphic" in2="effect1_dropShadow_2_4265" result="shape"/>
</filter>
<filter id="filter1_d_2_4265" x="117" y="211" width="303" height="82" filterUnits="userSpaceOnUse" color-interpolation-filters="sRGB">
<feFlood flood-opacity="0" result="BackgroundImageFix"/>
<feColorMatrix in="SourceAlpha" type="matrix" values="0 0 0 0 0 0 0 0 0 0 0 0 0 0 0 0 0 0 127 0" result="hardAlpha"/>
<feOffset dy="1"/>
<feGaussianBlur stdDeviation="1"/>
<feComposite in2="hardAlpha" operator="out"/>
<feColorMatrix type="matrix" values="0 0 0 0 0 0 0 0 0 0.200794 0 0 0 0 0.366667 0 0 0 0.06 0"/>
<feBlend mode="normal" in2="BackgroundImageFix" result="effect1_dropShadow_2_4265"/>
<feBlend mode="normal" in="SourceGraphic" in2="effect1_dropShadow_2_4265" result="shape"/>
</filter>
<filter id="filter2_d_2_4265" x="117" y="299" width="303" height="82" filterUnits="userSpaceOnUse" color-interpolation-filters="sRGB">
<feFlood flood-opacity="0" result="BackgroundImageFix"/>
<feColorMatrix in="SourceAlpha" type="matrix" values="0 0 0 0 0 0 0 0 0 0 0 0 0 0 0 0 0 0 127 0" result="hardAlpha"/>
<feOffset dy="1"/>
<feGaussianBlur stdDeviation="1"/>
<feComposite in2="hardAlpha" operator="out"/>
<feColorMatrix type="matrix" values="0 0 0 0 0 0 0 0 0 0.200794 0 0 0 0 0.366667 0 0 0 0.06 0"/>
<feBlend mode="normal" in2="BackgroundImageFix" result="effect1_dropShadow_2_4265"/>
<feBlend mode="normal" in="SourceGraphic" in2="effect1_dropShadow_2_4265" result="shape"/>
</filter>
<filter id="filter3_d_2_4265" x="117" y="387" width="303" height="82" filterUnits="userSpaceOnUse" color-interpolation-filters="sRGB">
<feFlood flood-opacity="0" result="BackgroundImageFix"/>
<feColorMatrix in="SourceAlpha" type="matrix" values="0 0 0 0 0 0 0 0 0 0 0 0 0 0 0 0 0 0 127 0" result="hardAlpha"/>
<feOffset dy="1"/>
<feGaussianBlur stdDeviation="1"/>
<feComposite in2="hardAlpha" operator="out"/>
<feColorMatrix type="matrix" values="0 0 0 0 0 0 0 0 0 0.200794 0 0 0 0 0.366667 0 0 0 0.06 0"/>
<feBlend mode="normal" in2="BackgroundImageFix" result="effect1_dropShadow_2_4265"/>
<feBlend mode="normal" in="SourceGraphic" in2="effect1_dropShadow_2_4265" result="shape"/>
</filter>
<filter id="filter4_d_2_4265" x="487.008" y="37.5007" width="30.0826" height="29.4971" filterUnits="userSpaceOnUse" color-interpolation-filters="sRGB">
<feFlood flood-opacity="0" result="BackgroundImageFix"/>
<feColorMatrix in="SourceAlpha" type="matrix" values="0 0 0 0 0 0 0 0 0 0 0 0 0 0 0 0 0 0 127 0" result="hardAlpha"/>
<feOffset dy="1.99316"/>
<feGaussianBlur stdDeviation="1.49487"/>
<feComposite in2="hardAlpha" operator="out"/>
<feColorMatrix type="matrix" values="0 0 0 0 0 0 0 0 0 0 0 0 0 0 0 0 0 0 0.35 0"/>
<feBlend mode="normal" in2="BackgroundImageFix" result="effect1_dropShadow_2_4265"/>
<feBlend mode="normal" in="SourceGraphic" in2="effect1_dropShadow_2_4265" result="shape"/>
</filter>
<radialGradient id="paint0_radial_2_4265" cx="0" cy="0" r="1" gradientUnits="userSpaceOnUse" gradientTransform="translate(268 268) rotate(90) scale(230)">
<stop stop-color="#00A7A7" stop-opacity="0.16"/>
<stop offset="1" stop-color="#00A7A7" stop-opacity="0"/>
</radialGradient>
<linearGradient id="paint1_linear_2_4265" x1="105" y1="58" x2="596.585" y2="264.938" gradientUnits="userSpaceOnUse">
<stop stop-color="#CCE2F4"/>
<stop offset="1" stop-color="#DDECF8" stop-opacity="0"/>
</linearGradient>
<linearGradient id="paint2_linear_2_4265" x1="267.04" y1="78" x2="267.04" y2="134" gradientUnits="userSpaceOnUse">
<stop stop-color="#F5FFFF"/>
<stop offset="1" stop-color="#E0F5F5"/>
</linearGradient>
<linearGradient id="paint3_linear_2_4265" x1="50.5" y1="0" x2="50.5" y2="65" gradientUnits="userSpaceOnUse">
<stop stop-color="white"/>
<stop offset="1" stop-color="white" stop-opacity="0"/>
</linearGradient>
</defs>
</svg>
